<?xml version="1.0" encoding="utf-8" standalone="no" ?>
<svg version="1.1"
     xmlns="http://www.w3.org/2000/svg"
     xmlns:xlink="http://www.w3.org/1999/xlink"
     viewBox="-1.5 3.5 10.5 9.5"
>

<title>Singular Value Decomposition</title>

<desc>

This is the File
   http://commons.wikimedia.org/wiki/File:Singular-Value-Decomposition.svg

Singular Value Decomposition of the 2-dimensional Shearing

M = ( 1 1 )
    ( 0 1 )

The Image shows:

Upper Left:
	The unit Disc with the two canonical unit Vectors

Upper Right:
	Unit Disc et al. transformed with M and signular Values
	sigma_1 and sigma_2 indicated

Lower Left:
	The Action of V^* on the Unit disc. This is a just
	Rotation.

Lower Right:
	The Action of Sigma * V^* on the Unit disc. Sigma scales in
	vertically and horizontally.

The this special Case the singularValues are Phi and 1/Phi where
Phi is the Golden Ratio. V^* is a (counter clockwise) Rotation by
an angle alpha where alpha satisfies tan(alpha) = -Phi.
U is a Rotation by beta with tan(beta) = Phi-1

</desc>

<defs>

<!-- TeX Computer Modern -->
<path id="M"     d="M 9.234,-6.047 C 9.328,-6.406 9.344,-6.5 10.09,-6.5 C 10.31,-6.5 10.41,-6.5 10.41,-6.703 C 10.41,-6.812 10.31,-6.812 10.14,-6.812 L 8.828,-6.812 C 8.563,-6.812 8.547,-6.812 8.438,-6.625 L 4.797,-0.9375 L 4.016,-6.578 C 3.984,-6.812 3.969,-6.812 3.703,-6.812 L 2.344,-6.812 C 2.156,-6.812 2.047,-6.812 2.047,-6.625 C 2.047,-6.5 2.141,-6.5 2.328,-6.5 C 2.469,-6.5 2.641,-6.484 2.766,-6.484 C 2.922,-6.453 2.984,-6.437 2.984,-6.312 C 2.984,-6.281 2.969,-6.25 2.938,-6.125 L 1.672,-1.062 C 1.578,-0.6562 1.406,-0.3437 0.5937,-0.3125 C 0.5469,-0.3125 0.4219,-0.2969 0.4219,-0.125 C 0.4219,-0.0312 0.4844,0 0.5625,0 C 0.875,0 1.219,-0.0312 1.562,-0.0312 C 1.891,-0.0312 2.25,0 2.578,0 C 2.625,0 2.766,0 2.766,-0.2031 C 2.766,-0.3125 2.656,-0.3125 2.578,-0.3125 C 2.016,-0.3125 1.906,-0.5156 1.906,-0.75 C 1.906,-0.8125 1.906,-0.875 1.937,-0.9844 L 3.297,-6.406 L 3.313,-6.406 L 4.172,-0.2344 C 4.187,-0.1094 4.203,0 4.312,0 C 4.422,0 4.484,-0.1094 4.531,-0.1719 L 8.563,-6.484 L 8.578,-6.484 L 7.141,-0.7812 C 7.047,-0.3906 7.031,-0.3125 6.234,-0.3125 C 6.078,-0.3125 5.969,-0.3125 5.969,-0.125 C 5.969,0 6.078,0 6.109,0 C 6.391,0 7.062,-0.0312 7.344,-0.0312 C 7.75,-0.0312 8.188,0 8.594,0 C 8.656,0 8.781,0 8.781,-0.2031 C 8.781,-0.3125 8.688,-0.3125 8.5,-0.3125 C 8.141,-0.3125 7.859,-0.3125 7.859,-0.4844 C 7.859,-0.5312 7.859,-0.5469 7.906,-0.7344 L 9.234,-6.047 z"/>
<path id="U"     d="M 6.328,-5.766 C 6.437,-6.172 6.609,-6.469 7.406,-6.5 C 7.453,-6.5 7.578,-6.516 7.578,-6.703 C 7.578,-6.703 7.578,-6.812 7.453,-6.812 C 7.125,-6.812 6.766,-6.781 6.437,-6.781 C 6.094,-6.781 5.719,-6.812 5.391,-6.812 C 5.328,-6.812 5.219,-6.812 5.219,-6.609 C 5.219,-6.5 5.312,-6.5 5.391,-6.5 C 5.969,-6.484 6.078,-6.281 6.078,-6.062 C 6.078,-6.031 6.047,-5.875 6.047,-5.859 L 5.141,-2.297 C 4.812,-0.9531 3.656,-0.0937 2.656,-0.0937 C 1.984,-0.0937 1.453,-0.5312 1.453,-1.391 C 1.453,-1.406 1.453,-1.719 1.562,-2.156 L 2.516,-6.047 C 2.609,-6.406 2.625,-6.5 3.359,-6.5 C 3.625,-6.5 3.703,-6.5 3.703,-6.703 C 3.703,-6.812 3.594,-6.812 3.563,-6.812 C 3.281,-6.812 2.563,-6.781 2.281,-6.781 C 2,-6.781 1.281,-6.812 1,-6.812 C 0.9219,-6.812 0.8125,-6.812 0.8125,-6.609 C 0.8125,-6.5 0.8906,-6.5 1.094,-6.5 C 1.109,-6.5 1.297,-6.5 1.469,-6.484 C 1.641,-6.453 1.734,-6.453 1.734,-6.312 C 1.734,-6.266 1.625,-5.844 1.562,-5.609 L 1.344,-4.734 C 1.25,-4.344 0.7812,-2.469 0.7344,-2.266 C 0.6719,-2 0.6719,-1.844 0.6719,-1.687 C 0.6719,-0.4844 1.578,0.2187 2.625,0.2187 C 3.875,0.2187 5.109,-0.9063 5.437,-2.219 L 6.328,-5.766 z"/>
<path id="V"     d="M 6.266,-5.672 C 6.75,-6.453 7.172,-6.484 7.531,-6.5 C 7.656,-6.516 7.672,-6.672 7.672,-6.687 C 7.672,-6.766 7.609,-6.812 7.531,-6.812 C 7.281,-6.812 6.984,-6.781 6.719,-6.781 C 6.391,-6.781 6.047,-6.812 5.734,-6.812 C 5.672,-6.812 5.547,-6.812 5.547,-6.625 C 5.547,-6.516 5.625,-6.5 5.703,-6.5 C 5.969,-6.484 6.156,-6.375 6.156,-6.172 C 6.156,-6.016 6.016,-5.797 6.016,-5.797 L 2.953,-0.9219 L 2.266,-6.203 C 2.266,-6.375 2.5,-6.5 2.953,-6.5 C 3.094,-6.5 3.203,-6.5 3.203,-6.703 C 3.203,-6.781 3.125,-6.812 3.078,-6.812 C 2.672,-6.812 2.25,-6.781 1.828,-6.781 C 1.656,-6.781 1.469,-6.781 1.281,-6.781 C 1.109,-6.781 0.9219,-6.812 0.75,-6.812 C 0.6719,-6.812 0.5625,-6.812 0.5625,-6.625 C 0.5625,-6.5 0.6406,-6.5 0.8125,-6.5 C 1.359,-6.5 1.375,-6.406 1.406,-6.156 L 2.188,-0.0156 C 2.219,0.1875 2.266,0.2187 2.391,0.2187 C 2.547,0.2187 2.594,0.1719 2.672,0.0469 L 6.266,-5.672 z"/>
<path id="Sigma" d="M 3.703,-3.25 C 3.797,-3.344 3.797,-3.391 3.797,-3.406 C 3.797,-3.453 3.766,-3.516 3.734,-3.547 L 1.687,-6.5 L 3.984,-6.5 C 5.672,-6.5 6.172,-6.141 6.375,-4.562 L 6.625,-4.562 L 6.344,-6.812 L 0.8125,-6.812 C 0.5781,-6.812 0.5625,-6.812 0.5625,-6.578 L 3.047,-2.969 L 0.6719,-0.2656 C 0.5625,-0.1562 0.5625,-0.1406 0.5625,-0.1094 C 0.5625,0 0.6719,0 0.8125,0 L 6.344,0 L 6.625,-2.359 L 6.375,-2.359 C 6.203,-0.6875 5.516,-0.4219 3.953,-0.4219 L 1.203,-0.4219 L 3.703,-3.25 z"/>
<path id="sigma" d="M 5.156,-3.719 C 5.297,-3.719 5.656,-3.719 5.656,-4.062 C 5.656,-4.297 5.437,-4.297 5.266,-4.297 L 2.984,-4.297 C 1.484,-4.297 0.375,-2.656 0.375,-1.469 C 0.375,-0.5937 0.9688,0.1094 1.875,0.1094 C 3.047,0.1094 4.375,-1.094 4.375,-2.625 C 4.375,-2.797 4.375,-3.281 4.062,-3.719 L 5.156,-3.719 z M 1.891,-0.1094 C 1.391,-0.1094 1,-0.4687 1,-1.187 C 1,-1.484 1.109,-2.297 1.469,-2.891 C 1.891,-3.578 2.484,-3.719 2.828,-3.719 C 3.656,-3.719 3.734,-3.063 3.734,-2.75 C 3.734,-2.281 3.531,-1.469 3.203,-0.9531 C 2.813,-0.375 2.266,-0.1094 1.891,-0.1094 z"/>
<path id="eq"    d="M 6.844,-3.266 C 7,-3.266 7.187,-3.266 7.187,-3.453 C 7.187,-3.656 7,-3.656 6.859,-3.656 L 0.8906,-3.656 C 0.75,-3.656 0.5625,-3.656 0.5625,-3.453 C 0.5625,-3.266 0.75,-3.266 0.8906,-3.266 L 6.844,-3.266 z M 6.859,-1.328 C 7,-1.328 7.187,-1.328 7.187,-1.531 C 7.187,-1.719 7,-1.719 6.844,-1.719 L 0.8906,-1.719 C 0.75,-1.719 0.5625,-1.719 0.5625,-1.531 C 0.5625,-1.328 0.75,-1.328 0.8906,-1.328 L 6.859,-1.328 z"/>
<path id="cdot"  d="M 1.906,-2.5 C 1.906,-2.781 1.672,-3.016 1.391,-3.016 C 1.094,-3.016 0.8594,-2.781 0.8594,-2.5 C 0.8594,-2.203 1.094,-1.969 1.391,-1.969 C 1.672,-1.969 1.906,-2.203 1.906,-2.5 z"/>
<path id="_1"    d="M 2.328,-4.437 C 2.328,-4.625 2.328,-4.625 2.125,-4.625 C 1.672,-4.187 1.047,-4.187 0.7656,-4.187 L 0.7656,-3.938 C 0.9219,-3.938 1.391,-3.938 1.766,-4.125 L 1.766,-0.5781 C 1.766,-0.3437 1.766,-0.25 1.078,-0.25 L 0.8125,-0.25 L 0.8125,0 C 0.9375,0 1.797,-0.0312 2.047,-0.0312 C 2.266,-0.0312 3.141,0 3.297,0 L 3.297,-0.25 L 3.031,-0.25 C 2.328,-0.25 2.328,-0.3437 2.328,-0.5781 L 2.328,-4.437 z"/>
<path id="_2"    d="M 3.516,-1.266 L 3.281,-1.266 C 3.266,-1.109 3.188,-0.7031 3.094,-0.6406 C 3.047,-0.5937 2.516,-0.5937 2.406,-0.5937 L 1.125,-0.5937 C 1.859,-1.234 2.109,-1.437 2.516,-1.766 C 3.031,-2.172 3.516,-2.609 3.516,-3.266 C 3.516,-4.109 2.781,-4.625 1.891,-4.625 C 1.031,-4.625 0.4375,-4.016 0.4375,-3.375 C 0.4375,-3.031 0.7344,-2.984 0.8125,-2.984 C 0.9688,-2.984 1.172,-3.109 1.172,-3.359 C 1.172,-3.484 1.125,-3.734 0.7656,-3.734 C 0.9844,-4.219 1.453,-4.375 1.781,-4.375 C 2.484,-4.375 2.844,-3.828 2.844,-3.266 C 2.844,-2.656 2.406,-2.188 2.188,-1.937 L 0.5156,-0.2656 C 0.4375,-0.2031 0.4375,-0.1875 0.4375,0 L 3.313,0 L 3.516,-1.266 z"/>
<path id="_ast"  d="M 3.281,-2.188 C 3.375,-2.219 3.453,-2.266 3.453,-2.391 C 3.453,-2.484 3.375,-2.609 3.234,-2.609 C 3.188,-2.609 3.156,-2.594 3.094,-2.547 L 2.125,-1.906 L 2.234,-2.953 L 2.25,-3.047 C 2.25,-3.125 2.172,-3.234 2.031,-3.234 C 1.891,-3.234 1.812,-3.141 1.812,-3.047 L 1.937,-1.906 L 0.9844,-2.547 C 0.8906,-2.594 0.8594,-2.609 0.8281,-2.609 C 0.7031,-2.609 0.6094,-2.484 0.6094,-2.391 C 0.6094,-2.266 0.6875,-2.219 0.7812,-2.188 L 1.812,-1.734 L 0.7812,-1.297 C 0.6875,-1.25 0.6094,-1.219 0.6094,-1.094 C 0.6094,-1 0.7031,-0.875 0.8281,-0.875 C 0.8906,-0.875 0.9063,-0.8906 0.9688,-0.9375 L 1.937,-1.562 L 1.812,-0.4375 C 1.812,-0.3437 1.891,-0.2344 2.031,-0.2344 C 2.172,-0.2344 2.25,-0.3437 2.25,-0.4375 C 2.25,-0.4687 2.125,-1.547 2.125,-1.562 C 2.344,-1.437 2.641,-1.234 2.984,-1 C 3.172,-0.875 3.188,-0.875 3.234,-0.875 C 3.375,-0.875 3.453,-1 3.453,-1.094 C 3.453,-1.219 3.359,-1.266 3.313,-1.297 C 2.969,-1.437 2.609,-1.594 2.25,-1.734 L 3.281,-2.188 z"/>

<style type="text/css">
	#fill    { stroke:none; fill:#6af; fill-opacity:1}
	.arrow   {fill:#000; stroke-width:0.04; stroke:#000;}
	.x-arrow {fill:#f08; stroke-width:0.06; stroke:#f08;}
	.y-arrow {fill:#fc0; stroke-width:0.06; stroke:#fc0;}
	.sigma   {fill:none; stroke-width:0.06; stroke:#00c;}
	.O- {fill:#08e; stroke:none;}
</style>

<!-- Head of Arrow -->
<path id="head" transform="scale(0.5)" d="M -1 0 L -6 4 L 6 0 L -6 -5 z"/>

<!-- Arrow -->
<marker id="Arrow" refX="6" refY="5" markerUnits="strokeWidth" markerWidth="12" markerHeight="9" orient="auto" >
	<g transform="translate(6 5) scale(1.25)" class="arrow">
		<use xlink:href="#head" />
	</g>
</marker>

<!-- x-Arrow -->
<marker id="ArrowX" refX="6" refY="5" markerUnits="strokeWidth"	markerWidth="12" markerHeight="9" orient="auto" >
	<g transform="translate(6 5)" class="x-arrow">
		<use xlink:href="#head" />
	</g>
</marker>

<!-- x-Arrow -->
<marker id="ArrowY" refX="6" refY="5" markerUnits="strokeWidth"	markerWidth="12" markerHeight="9" orient="auto" >
	<g transform="translate(6 5)" class="y-arrow">
		<use xlink:href="#head" />
	</g>
</marker>

<!-- Singular Value Indicators -->
<g id="sigma-1-2">
	<path d="M 0 0 H 1.618" />
	<path d="M 0 0 V 0.618" />
</g>

<!-- Unit Circle -->
<circle id="fill" r="1"/>

<!-- Identity -->
<g id="f_id">
	<use xlink:href="#fill" />
	<path class="x-arrow" d="M 0 0 H 0.82" marker-end="url(#ArrowX)"/>
	<path class="y-arrow" d="M 0 0 V 0.82" marker-end="url(#ArrowY)"/>
</g>

<!-- Sigma * V^* -->
<g id="f_S-Vstar">
	<use xlink:href="#fill" transform="scale(1.618 0.618)"/>
	<use xlink:href="#sigma-1-2" class="sigma" />
	<g transform="rotate(-31.717)">
		<path class="x-arrow" d="M 0 0 H 0.82" marker-end="url(#ArrowX)"/>
		<path class="y-arrow" d="M 0 0 L 0.87272 0.87272" marker-end="url(#ArrowY)"/>
	</g>
</g>

</defs>

<!-- ########################################################################## -->

<!-- Background for good Contrast -->
<rect x="-1.5" y="3.5" width="100%" height="100%" fill="white" fill-opacity="0.7"/>

<!-- Unit Disc and its Transformations -->
<g transform="translate (0 10) scale(1 -1) ">

	<!-- Upper Left: Identity -->
	<g transform="translate(0 5) scale(1.2)">
		<use xlink:href="#f_id" />
		<path class="arrow" d="M 1.5 0 h 1.7" marker-end="url(#Arrow)"/>
		<path class="arrow" d="M 0 -1.2 v -1.7" marker-end="url(#Arrow)"/>
	</g>

	<!-- Upper Right: M -->
	<g transform="translate(6.5 5) scale(1.2)">
		<use xlink:href="#f_S-Vstar" transform="rotate(31.717)" />
	</g>

	<!-- Lower Left: V^star -->
	<g transform="translate(0 0) scale(1.2)">
		<path class="arrow" d="M 1.5 0 h 1.7" marker-end="url(#Arrow)"/>
		<use xlink:href="#f_id" transform="rotate(-58.28)" />
	</g>

	<!-- Lower Right: Sigma * V^star -->
	<g transform="translate(6.5 0) scale(1.2)">
		<path class="arrow" d="M 0 1.1 v 1.7" marker-end="url(#Arrow)"/>
		<use xlink:href="#f_S-Vstar" />
	</g>
</g>

<!-- Labels -->

<g transform="translate(7.8 10) scale(0.05)">
  <use xlink:href="#sigma" x="-5.5" y="7"/>
  <use xlink:href="#_1" x="0.25" y="8.4"/>
</g>

<g transform="translate(6.55 9.7) scale(0.05)">
  <use xlink:href="#sigma" x="-13.5" y="1"/>
  <use xlink:href="#_2" x="-7.85" y="2.5"/>
</g>

<g transform="translate(7.5 4.35) scale(0.05)">
  <use xlink:href="#sigma" x="1.7" y="6"/>
  <use xlink:href="#_1" x="7.4" y="7.5"/>
</g>

<g transform="translate(6.3 4.6) scale(0.05)">
  <use xlink:href="#sigma" x="-12.6" y="6"/>
  <use xlink:href="#_2" x="-7" y="7.5"/>
</g>

<g transform="translate(3 5) scale(0.05)">
  <use xlink:href="#M" x="-5.75" y="-3.37"/>
</g>

<g transform="translate(1 7.5) scale(0.05)">
  <use xlink:href="#V" x="-16" y="3"/>
  <use xlink:href="#_ast" x="-7.95" y="-0.56"/>
</g>

<g transform="translate(2.9 10) scale(0.05)">
  <use xlink:href="#Sigma" x="-4" y="-3.37"/>
</g>

<g transform="translate(6.9 7.6) scale(0.05)">
  <use xlink:href="#U" x="-4" y="3"/>
</g>

<g transform="translate(3.25 12.5) scale(0.07) translate(0 -3.37)">
  <use xlink:href="#M"  x="-30.9"  />
  <use xlink:href="#eq" x="-17.7" />
  <use xlink:href="#U"  x="-6.9"  />
  <use xlink:href="#cdot"  x="1.4" y="-0.53"/>
  <use xlink:href="#Sigma" x="4.86" />
  <use xlink:href="#cdot"  x="14.1" y="-0.53"/>
  <use xlink:href="#V"    x="17.6" />
  <use xlink:href="#_ast" x="25.6" y="-3.63"/>
</g>

</svg>
