<?xml version="1.0" encoding="UTF-8" standalone="no"?>
<!-- Created with Inkscape (http://www.inkscape.org/) -->

<svg
   xmlns:ns1="http://www.iki.fi/pav/software/textext/"
   xmlns:dc="http://purl.org/dc/elements/1.1/"
   xmlns:cc="http://creativecommons.org/ns#"
   xmlns:rdf="http://www.w3.org/1999/02/22-rdf-syntax-ns#"
   xmlns:svg="http://www.w3.org/2000/svg"
   xmlns="http://www.w3.org/2000/svg"
   xmlns:sodipodi="http://sodipodi.sourceforge.net/DTD/sodipodi-0.dtd"
   xmlns:inkscape="http://www.inkscape.org/namespaces/inkscape"
   width="120.60847mm"
   height="77.577431mm"
   viewBox="0 0 120.60848 77.577431"
   version="1.1"
   id="svg8"
   sodipodi:docname="convex.svg"
   inkscape:version="0.92.4 5da689c313, 2019-01-14">
  <defs
     id="defs2">
    <inkscape:path-effect
       effect="spiro"
       id="path-effect1933"
       is_visible="true" />
    <inkscape:path-effect
       effect="simplify"
       id="path-effect1931"
       is_visible="true"
       steps="1"
       threshold="0.0102935"
       smooth_angles="360"
       helper_size="0"
       simplify_individual_paths="false"
       simplify_just_coalesce="false"
       simplifyindividualpaths="false"
       simplifyJustCoalesce="false" />
    <marker
       inkscape:stockid="Arrow1Lstart"
       orient="auto"
       refY="0"
       refX="0"
       id="marker1251"
       style="overflow:visible"
       inkscape:isstock="true">
      <path
         id="path1249"
         d="M 0,0 5,-5 -12.5,0 5,5 Z"
         style="fill:#000000;fill-opacity:1;fill-rule:evenodd;stroke:#000000;stroke-width:1.00000003pt;stroke-opacity:1"
         transform="matrix(0.8,0,0,0.8,10,0)"
         inkscape:connector-curvature="0" />
    </marker>
    <marker
       inkscape:stockid="Arrow1Lstart"
       orient="auto"
       refY="0"
       refX="0"
       id="marker1199"
       style="overflow:visible"
       inkscape:isstock="true">
      <path
         id="path1197"
         d="M 0,0 5,-5 -12.5,0 5,5 Z"
         style="fill:#000000;fill-opacity:1;fill-rule:evenodd;stroke:#000000;stroke-width:1.00000003pt;stroke-opacity:1"
         transform="matrix(0.8,0,0,0.8,10,0)"
         inkscape:connector-curvature="0" />
    </marker>
    <marker
       inkscape:stockid="Arrow1Lstart"
       orient="auto"
       refY="0"
       refX="0"
       id="marker1165"
       style="overflow:visible"
       inkscape:isstock="true">
      <path
         id="path1163"
         d="M 0,0 5,-5 -12.5,0 5,5 Z"
         style="fill:#000000;fill-opacity:1;fill-rule:evenodd;stroke:#000000;stroke-width:1.00000003pt;stroke-opacity:1"
         transform="matrix(0.8,0,0,0.8,10,0)"
         inkscape:connector-curvature="0" />
    </marker>
    <marker
       inkscape:stockid="Arrow1Lstart"
       orient="auto"
       refY="0"
       refX="0"
       id="Arrow1Lstart"
       style="overflow:visible"
       inkscape:isstock="true">
      <path
         id="path825"
         d="M 0,0 5,-5 -12.5,0 5,5 Z"
         style="fill:#000000;fill-opacity:1;fill-rule:evenodd;stroke:#000000;stroke-width:1.00000003pt;stroke-opacity:1"
         transform="matrix(0.8,0,0,0.8,10,0)"
         inkscape:connector-curvature="0" />
    </marker>
    <marker
       inkscape:stockid="DotL"
       orient="auto"
       refY="0"
       refX="0"
       id="DotL"
       style="overflow:visible"
       inkscape:isstock="true">
      <path
         id="path886"
         d="m -2.5,-1 c 0,2.76 -2.24,5 -5,5 -2.76,0 -5,-2.24 -5,-5 0,-2.76 2.24,-5 5,-5 2.76,0 5,2.24 5,5 z"
         style="fill:#cf0000;fill-opacity:1;fill-rule:evenodd;stroke:#cf0000;stroke-width:1.00000003pt;stroke-opacity:1"
         transform="matrix(0.8,0,0,0.8,5.92,0.8)"
         inkscape:connector-curvature="0" />
    </marker>
    <inkscape:path-effect
       effect="spiro"
       id="path-effect821"
       is_visible="true" />
    <inkscape:path-effect
       effect="simplify"
       id="path-effect819"
       is_visible="true"
       steps="1"
       threshold="0.0102935"
       smooth_angles="360"
       helper_size="0"
       simplify_individual_paths="false"
       simplify_just_coalesce="false"
       simplifyindividualpaths="false"
       simplifyJustCoalesce="false" />
  </defs>
  <sodipodi:namedview
     id="base"
     pagecolor="#ffffff"
     bordercolor="#666666"
     borderopacity="1.0"
     inkscape:pageopacity="0.0"
     inkscape:pageshadow="2"
     inkscape:zoom="2.2175781"
     inkscape:cx="198.98055"
     inkscape:cy="167.06939"
     inkscape:document-units="mm"
     inkscape:current-layer="layer1"
     showgrid="true"
     fit-margin-top="0"
     fit-margin-left="0"
     fit-margin-right="0"
     fit-margin-bottom="0"
     inkscape:window-width="1920"
     inkscape:window-height="1015"
     inkscape:window-x="0"
     inkscape:window-y="0"
     inkscape:window-maximized="1">
    <inkscape:grid
       originy="-203.36602"
       originx="-47.576152"
       id="grid815"
       type="xygrid" />
  </sodipodi:namedview>
  <metadata
     id="metadata5">
    <rdf:RDF>
      <cc:Work
         rdf:about="">
        <dc:format>image/svg+xml</dc:format>
        <dc:type
           rdf:resource="http://purl.org/dc/dcmitype/StillImage" />
        <dc:title></dc:title>
      </cc:Work>
    </rdf:RDF>
  </metadata>
  <g
     inkscape:label="Calque 1"
     inkscape:groupmode="layer"
     id="layer1"
     transform="translate(-47.576147,-16.056564)">
    <path
       style="fill:#c4ffed;fill-opacity:0.38928606;fill-rule:evenodd;stroke:#000000;stroke-width:0.26458332px;stroke-linecap:butt;stroke-linejoin:miter;stroke-opacity:1"
       d="m 95.249999,16.54167 c -8.074467,0.09344 -16.11881,2.169373 -23.230196,5.994807 -6.101804,3.282348 -11.463068,7.79332 -16.404341,12.650237 -4.091039,4.021199 -7.999737,8.413979 -10.210509,13.707289 -1.433405,3.43204 -2.109247,7.186785 -1.888953,10.899603 0.220294,3.712819 1.343061,7.377587 3.30299,10.538636 2.243223,3.617957 5.521963,6.508178 9.119703,8.783684 3.59774,2.275506 7.5258,3.972968 11.46298,5.591693 6.366369,2.617457 12.828755,5.061995 19.523801,6.661399 6.593388,1.575118 13.392546,2.31921 20.167686,2.092862 6.56317,-0.219266 13.14073,-1.363561 19.20522,-3.882538 6.33244,-2.630274 11.98279,-6.704137 17.05123,-11.322479 4.83994,-4.410132 9.19522,-9.337991 13.13467,-14.568191 2.63106,-3.493124 5.11472,-7.195408 6.3944,-11.377133 0.9251,-3.023025 1.1917,-6.255173 0.6921,-9.376853 -0.4996,-3.121679 -1.77234,-6.126837 -3.73221,-8.60744 -3.64008,-4.607232 -9.28228,-7.089868 -14.7507,-9.228361 -5.85453,-2.289486 -11.79436,-4.390487 -17.89015,-5.926242 -6.38268,-1.608032 -12.92484,-2.591006 -19.50028,-2.88754 -4.1488,-0.187099 -8.309878,-0.101331 -12.447441,0.256567 z"
       id="path1929"
       inkscape:connector-curvature="0"
       inkscape:path-effect="#path-effect1931;#path-effect1933"
       inkscape:original-d="m 95.249999,16.54167 c -1.245561,-0.688272 -2.648508,-0.458424 -4.0293,-0.458424 -1.167477,0 -2.563209,-0.227091 -3.698666,0 -4.709197,0.94184 -9.081712,2.941257 -13.243615,5.369033 -1.440754,0.840441 -3.070937,1.334884 -4.53385,2.147613 -1.343092,0.746163 -2.81057,1.226318 -4.175914,1.90899 -0.460015,0.230008 -0.883693,0.620814 -1.31243,0.835183 -1.487265,0.743632 -3.359279,1.319781 -4.53385,2.62486 -1.894347,2.10483 -2.897952,4.930562 -4.772474,7.039399 -0.680091,0.765102 -1.586542,1.746481 -2.386237,2.386237 -0.865188,0.69215 -0.41536,-0.02413 -1.31243,0.954494 -1.044405,1.139352 -1.789244,2.40726 -2.624861,3.698667 -1.283978,1.98433 -2.772048,3.599424 -3.221419,5.846281 -0.07648,0.382411 0.07648,0.810708 0,1.193118 -0.66444,3.322198 -0.238624,7.091285 -0.238624,10.499441 0,2.042579 -0.502746,6.144721 0.238624,7.874582 1.282045,2.991438 5.38731,3.668425 7.397334,5.965593 2.396346,2.73868 4.512662,6.790181 7.874581,8.47114 1.665989,0.832996 3.679813,1.029846 5.488345,1.431743 1.678246,0.372943 3.214336,1.370314 4.891786,1.789678 1.405872,0.351468 2.830658,0.61658 4.175914,1.193118 1.826196,0.782656 3.149528,2.266807 5.011097,2.982796 2.091605,0.804463 4.505592,0.555741 6.681464,1.073806 1.01468,0.241591 1.74379,0.453647 2.744171,0.596559 0.07874,0.01124 -0.03557,0.167481 0,0.238625 0.127268,0.254531 0.310211,0.50111 0.596559,0.596558 1.503796,0.501267 3.330845,0.216033 4.891786,0.357937 3.242747,0.294793 6.5095,0.238622 9.78357,0.238622 1.38794,0 2.91792,0.172164 4.29523,0 0.68319,-0.0854 1.47059,-0.531228 2.14761,-0.71587 1.03463,-0.282173 2.07361,-0.316061 3.10211,-0.596559 1.42756,-0.389334 2.81125,-0.976854 4.17591,-1.431742 0.38989,-0.129963 0.90703,0.08108 1.31243,0 1.73022,-0.346043 3.59407,-0.876588 5.36904,-1.073806 0.31622,-0.03514 0.64857,0.08741 0.95449,0 0.89638,-0.256109 1.82739,-0.605989 2.74417,-0.835184 0.2315,-0.05787 0.50244,0.106715 0.71588,0 0.37626,-0.188132 0.74261,-0.669589 1.0738,-0.835184 0.14229,-0.07114 0.33103,0.06267 0.47725,0 0.1392,-0.05966 0.43747,-0.490503 0.59656,-0.596558 0.64002,-0.426686 1.47101,-0.578604 2.14761,-0.954495 0.55642,-0.309121 0.88333,-0.864069 1.43174,-1.193118 1.53562,-0.921374 3.23343,-1.920999 4.53385,-3.221421 0.85374,-0.853736 1.9124,-1.746721 2.62486,-2.744171 0.41035,-0.574487 0.954,-1.341882 1.55106,-1.789678 0.2554,-0.191553 0.39184,-0.09976 0.71587,-0.238623 1.01397,-0.434559 3.63687,-2.354622 4.53385,-3.10211 0.75009,-0.625075 1.34124,-1.579864 2.0283,-2.266923 1.01786,-1.017858 2.38483,-4.690592 3.22142,-6.084904 0.49923,-0.832043 1.0697,-1.30833 1.78968,-2.028301 0.14139,-0.141393 0.1513,-0.509241 0.23862,-0.596561 0.33911,-0.339108 0.72805,-0.728043 1.07381,-1.073806 0.68651,-0.686512 2.06501,-1.266547 2.50555,-2.147612 0.0178,-0.03557 0,-0.07954 0,-0.119312 0.0795,-0.198852 0.11012,-0.425222 0.23862,-0.596561 0.24385,-0.325136 0.75828,-0.562073 0.9545,-0.954492 0.19683,-0.393684 0.15338,-0.869254 0.47724,-1.19312 0.0637,-0.06367 0.14199,-2.54793 0.23863,-2.982796 0.55699,-2.506488 -0.0581,0.503171 0.47724,-0.835184 0.45415,-1.135364 -0.0763,-2.450806 0.59656,-3.460044 0.16822,-0.252317 0,-6.845506 0,-7.635956 0,-0.674768 0.18131,-1.63236 0,-2.266925 -0.0976,-0.341562 -0.41331,-0.441008 -0.59656,-0.715871 -0.56679,-0.850191 -0.70504,-2.013141 -1.31243,-2.863484 -0.95722,-1.340119 -2.06894,-2.546196 -3.22142,-3.698668 -0.9046,-0.904607 -1.6521,-2.012324 -2.62486,-2.863484 -0.80233,-0.702041 -1.79982,-1.129645 -2.62486,-1.789677 -0.88001,-0.70401 -0.25509,-0.547825 -1.31243,-0.954495 -2.03595,-0.783059 -5.66104,-1.291803 -7.15871,-2.147613 -1.0524,-0.601373 -1.72734,-1.397726 -2.86348,-1.90899 -1.5964,-0.718378 -3.34046,-1.049862 -5.0111,-1.551054 -2.12284,-0.63685 -4.2159,-1.686295 -6.44284,-1.908989 -1.9298,-0.19298 -3.90449,-0.357936 -5.84628,-0.357936 -1.22579,0 -3.10018,0.341441 -4.29523,0 -1.09852,-0.313863 -2.40694,-0.569319 -3.57935,-0.715871 -0.1909,-0.02386 -0.92467,0.02983 -1.07381,0 -0.47773,-0.09555 -1.21647,-0.163409 -1.67037,-0.357935 -0.23406,-0.100314 -0.3517,-0.407288 -0.59655,-0.477248 -0.72455,-0.207012 -1.63602,-0.05107 -2.38624,-0.238623 -0.58974,-0.147434 -1.1413,-0.778141 -1.67037,-0.954495 -0.78217,-0.260723 -1.81147,0.162677 -2.62486,0 -2.05977,-0.411954 -4.44008,-0.119312 -6.562146,-0.119312 -1.183527,0 -3.660577,-0.453635 -4.561155,0.339112 z"
       transform="translate(4.2333239)" />
    <path
       style="fill:none;fill-rule:evenodd;stroke:#cf0000;stroke-width:0.26499999;stroke-linecap:butt;stroke-linejoin:miter;stroke-miterlimit:4;stroke-dasharray:0.79499996, 0.26499999;stroke-dashoffset:0;stroke-opacity:1;marker-start:url(#DotL);marker-end:url(#DotL)"
       d="M 89.958333,35.0625 145.52083,66.812499"
       id="path823"
       inkscape:connector-curvature="0" />
    <g
       id="g1672"
       ns1:jacobian_sqrt="0.860951"
       ns1:alignment="middle center"
       ns1:scale="2.44048964025"
       ns1:preamble="/usr/share/inkscape/extensions/textext/default_packages.tex"
       ns1:text="$$x$$"
       ns1:pdfconverter="pdf2svg"
       ns1:texconverter="pdflatex"
       ns1:version="0.10.1"
       transform="matrix(0.860951,0,0,0.860951,-177.39937,-92.677899)">
      <g
         id="surface1">
        <g
           id="g1669"
           style="fill:#000000;fill-opacity:1">
          <path
             id="path1667"
             transform="translate(302.777,146.72)"
             d="M 3.328125,-3.015625 C 3.390625,-3.265625 3.625,-4.1875 4.3125,-4.1875 c 0.046875,0 0.296875,0 0.5,0.125 C 4.53125,-4 4.34375,-3.765625 4.34375,-3.515625 c 0,0.15625 0.109375,0.34375 0.375,0.34375 0.21875,0 0.53125,-0.171875 0.53125,-0.578125 0,-0.515625 -0.578125,-0.65625 -0.921875,-0.65625 -0.578125,0 -0.921875,0.53125 -1.046875,0.75 -0.25,-0.65625 -0.78125,-0.75 -1.078125,-0.75 -1.03125,0 -1.609375,1.28125 -1.609375,1.53125 0,0.109375 0.109375,0.109375 0.125,0.109375 0.078125,0 0.109375,-0.03125 0.125,-0.109375 0.34375,-1.0625 1,-1.3125 1.34375,-1.3125 0.1875,0 0.53125,0.09375 0.53125,0.671875 0,0.3125 -0.171875,0.96875 -0.53125,2.375 -0.15625,0.609375 -0.515625,1.03125 -0.953125,1.03125 -0.0625,0 -0.28125,0 -0.5,-0.125 0.25,-0.0625 0.46875,-0.265625 0.46875,-0.546875 0,-0.265625 -0.21875,-0.34375 -0.359375,-0.34375 -0.3125,0 -0.546875,0.25 -0.546875,0.578125 0,0.453125 0.484375,0.65625 0.921875,0.65625 0.671875,0 1.03125,-0.703125 1.046875,-0.75 0.125,0.359375 0.484375,0.75 1.078125,0.75 1.03125,0 1.59375,-1.28125 1.59375,-1.53125 0,-0.109375 -0.078125,-0.109375 -0.109375,-0.109375 -0.09375,0 -0.109375,0.046875 -0.140625,0.109375 -0.328125,1.078125 -1,1.3125 -1.3125,1.3125 -0.390625,0 -0.546875,-0.3125 -0.546875,-0.65625 0,-0.21875 0.046875,-0.4375 0.15625,-0.875 z m 0,0"
             style="stroke:none;stroke-width:0"
             inkscape:connector-curvature="0" />
        </g>
      </g>
    </g>
    <g
       id="g1779"
       ns1:jacobian_sqrt="0.860951"
       ns1:alignment="middle center"
       ns1:scale="2.4404896119"
       ns1:preamble="/usr/share/inkscape/extensions/textext/default_packages.tex"
       ns1:text="$$\\alpha x + (1-\\alpha) y$$"
       ns1:pdfconverter="pdf2svg"
       ns1:texconverter="pdflatex"
       ns1:version="0.10.1"
       transform="matrix(0.860951,0,0,0.860951,-124.46397,-80.758255)">
      <g
         id="g1777">
        <g
           id="g1745"
           style="fill:#000000;fill-opacity:1">
          <path
             id="path1743"
             transform="translate(275.204,146.72)"
             d="m 4.75,-2.359375 c 0,-1.5625 -0.921875,-2.046875 -1.65625,-2.046875 -1.375,0 -2.6875,1.421875 -2.6875,2.828125 0,0.9375 0.59375,1.6875 1.625,1.6875 0.625,0 1.34375,-0.234375 2.09375,-0.84375 0.125,0.53125 0.453125,0.84375 0.90625,0.84375 0.53125,0 0.84375,-0.546875 0.84375,-0.703125 0,-0.078125 -0.0625,-0.109375 -0.125,-0.109375 -0.0625,0 -0.09375,0.03125 -0.125,0.109375 -0.1875,0.484375 -0.546875,0.484375 -0.5625,0.484375 -0.3125,0 -0.3125,-0.78125 -0.3125,-1.015625 0,-0.203125 0,-0.234375 0.109375,-0.34375 C 5.796875,-2.65625 6,-3.8125 6,-3.8125 6,-3.84375 5.984375,-3.921875 5.875,-3.921875 c -0.09375,0 -0.09375,0.03125 -0.140625,0.21875 -0.1875,0.625 -0.515625,1.375 -0.984375,1.96875 z m -0.65625,1.375 c -0.890625,0.765625 -1.65625,0.875 -2.046875,0.875 -0.59375,0 -0.90625,-0.453125 -0.90625,-1.09375 0,-0.484375 0.265625,-1.5625 0.578125,-2.0625 C 2.1875,-4 2.734375,-4.1875 3.078125,-4.1875 c 0.984375,0 0.984375,1.3125 0.984375,2.078125 0,0.375 0,0.953125 0.03125,1.125 z m 0,0"
             style="stroke:none;stroke-width:0"
             inkscape:connector-curvature="0" />
        </g>
        <g
           id="g1749"
           style="fill:#000000;fill-opacity:1">
          <path
             id="path1747"
             transform="translate(281.61693,146.72)"
             d="M 3.328125,-3.015625 C 3.390625,-3.265625 3.625,-4.1875 4.3125,-4.1875 c 0.046875,0 0.296875,0 0.5,0.125 C 4.53125,-4 4.34375,-3.765625 4.34375,-3.515625 c 0,0.15625 0.109375,0.34375 0.375,0.34375 0.21875,0 0.53125,-0.171875 0.53125,-0.578125 0,-0.515625 -0.578125,-0.65625 -0.921875,-0.65625 -0.578125,0 -0.921875,0.53125 -1.046875,0.75 -0.25,-0.65625 -0.78125,-0.75 -1.078125,-0.75 -1.03125,0 -1.609375,1.28125 -1.609375,1.53125 0,0.109375 0.109375,0.109375 0.125,0.109375 0.078125,0 0.109375,-0.03125 0.125,-0.109375 0.34375,-1.0625 1,-1.3125 1.34375,-1.3125 0.1875,0 0.53125,0.09375 0.53125,0.671875 0,0.3125 -0.171875,0.96875 -0.53125,2.375 -0.15625,0.609375 -0.515625,1.03125 -0.953125,1.03125 -0.0625,0 -0.28125,0 -0.5,-0.125 0.25,-0.0625 0.46875,-0.265625 0.46875,-0.546875 0,-0.265625 -0.21875,-0.34375 -0.359375,-0.34375 -0.3125,0 -0.546875,0.25 -0.546875,0.578125 0,0.453125 0.484375,0.65625 0.921875,0.65625 0.671875,0 1.03125,-0.703125 1.046875,-0.75 0.125,0.359375 0.484375,0.75 1.078125,0.75 1.03125,0 1.59375,-1.28125 1.59375,-1.53125 0,-0.109375 -0.078125,-0.109375 -0.109375,-0.109375 -0.09375,0 -0.109375,0.046875 -0.140625,0.109375 -0.328125,1.078125 -1,1.3125 -1.3125,1.3125 -0.390625,0 -0.546875,-0.3125 -0.546875,-0.65625 0,-0.21875 0.046875,-0.4375 0.15625,-0.875 z m 0,0"
             style="stroke:none;stroke-width:0"
             inkscape:connector-curvature="0" />
        </g>
        <g
           id="g1753"
           style="fill:#000000;fill-opacity:1">
          <path
             id="path1751"
             transform="translate(289.522,146.72)"
             d="m 4.078125,-2.296875 h 2.78125 C 7,-2.296875 7.1875,-2.296875 7.1875,-2.5 7.1875,-2.6875 7,-2.6875 6.859375,-2.6875 h -2.78125 v -2.796875 c 0,-0.140625 0,-0.328125 -0.203125,-0.328125 -0.203125,0 -0.203125,0.1875 -0.203125,0.328125 V -2.6875 h -2.78125 c -0.140625,0 -0.328125,0 -0.328125,0.1875 0,0.203125 0.1875,0.203125 0.328125,0.203125 h 2.78125 V 0.5 c 0,0.140625 0,0.328125 0.203125,0.328125 0.203125,0 0.203125,-0.1875 0.203125,-0.328125 z m 0,0"
             style="stroke:none;stroke-width:0"
             inkscape:connector-curvature="0" />
        </g>
        <g
           id="g1759"
           style="fill:#000000;fill-opacity:1">
          <path
             id="path1755"
             transform="translate(299.48261,146.72)"
             d="m 3.296875,2.390625 c 0,-0.03125 0,-0.046875 -0.171875,-0.21875 C 1.890625,0.921875 1.5625,-0.96875 1.5625,-2.5 c 0,-1.734375 0.375,-3.46875 1.609375,-4.703125 0.125,-0.125 0.125,-0.140625 0.125,-0.171875 0,-0.078125 -0.03125,-0.109375 -0.09375,-0.109375 -0.109375,0 -1,0.6875 -1.59375,1.953125 -0.5,1.09375 -0.625,2.203125 -0.625,3.03125 0,0.78125 0.109375,1.984375 0.65625,3.125 C 2.25,1.84375 3.09375,2.5 3.203125,2.5 c 0.0625,0 0.09375,-0.03125 0.09375,-0.109375 z m 0,0"
             style="stroke:none;stroke-width:0"
             inkscape:connector-curvature="0" />
          <path
             id="path1757"
             transform="translate(303.35706,146.72)"
             d="m 2.9375,-6.375 c 0,-0.25 0,-0.265625 -0.234375,-0.265625 C 2.078125,-6 1.203125,-6 0.890625,-6 v 0.3125 c 0.203125,0 0.78125,0 1.296875,-0.265625 v 5.171875 c 0,0.359375 -0.03125,0.46875 -0.921875,0.46875 h -0.3125 V 0 c 0.34375,-0.03125 1.203125,-0.03125 1.609375,-0.03125 0.390625,0 1.265625,0 1.609375,0.03125 v -0.3125 h -0.3125 c -0.90625,0 -0.921875,-0.109375 -0.921875,-0.46875 z m 0,0"
             style="stroke:none;stroke-width:0"
             inkscape:connector-curvature="0" />
        </g>
        <g
           id="g1763"
           style="fill:#000000;fill-opacity:1">
          <path
             id="path1761"
             transform="translate(310.554,146.72)"
             d="m 6.5625,-2.296875 c 0.171875,0 0.359375,0 0.359375,-0.203125 0,-0.1875 -0.1875,-0.1875 -0.359375,-0.1875 H 1.171875 c -0.171875,0 -0.34375,0 -0.34375,0.1875 0,0.203125 0.171875,0.203125 0.34375,0.203125 z m 0,0"
             style="stroke:none;stroke-width:0"
             inkscape:connector-curvature="0" />
        </g>
        <g
           id="g1767"
           style="fill:#000000;fill-opacity:1">
          <path
             id="path1765"
             transform="translate(320.517,146.72)"
             d="m 4.75,-2.359375 c 0,-1.5625 -0.921875,-2.046875 -1.65625,-2.046875 -1.375,0 -2.6875,1.421875 -2.6875,2.828125 0,0.9375 0.59375,1.6875 1.625,1.6875 0.625,0 1.34375,-0.234375 2.09375,-0.84375 0.125,0.53125 0.453125,0.84375 0.90625,0.84375 0.53125,0 0.84375,-0.546875 0.84375,-0.703125 0,-0.078125 -0.0625,-0.109375 -0.125,-0.109375 -0.0625,0 -0.09375,0.03125 -0.125,0.109375 -0.1875,0.484375 -0.546875,0.484375 -0.5625,0.484375 -0.3125,0 -0.3125,-0.78125 -0.3125,-1.015625 0,-0.203125 0,-0.234375 0.109375,-0.34375 C 5.796875,-2.65625 6,-3.8125 6,-3.8125 6,-3.84375 5.984375,-3.921875 5.875,-3.921875 c -0.09375,0 -0.09375,0.03125 -0.140625,0.21875 -0.1875,0.625 -0.515625,1.375 -0.984375,1.96875 z m -0.65625,1.375 c -0.890625,0.765625 -1.65625,0.875 -2.046875,0.875 -0.59375,0 -0.90625,-0.453125 -0.90625,-1.09375 0,-0.484375 0.265625,-1.5625 0.578125,-2.0625 C 2.1875,-4 2.734375,-4.1875 3.078125,-4.1875 c 0.984375,0 0.984375,1.3125 0.984375,2.078125 0,0.375 0,0.953125 0.03125,1.125 z m 0,0"
             style="stroke:none;stroke-width:0"
             inkscape:connector-curvature="0" />
        </g>
        <g
           id="g1771"
           style="fill:#000000;fill-opacity:1">
          <path
             id="path1769"
             transform="translate(326.927,146.72)"
             d="m 2.875,-2.5 c 0,-0.765625 -0.109375,-1.96875 -0.65625,-3.109375 -0.59375,-1.21875 -1.453125,-1.875 -1.546875,-1.875 -0.0625,0 -0.109375,0.046875 -0.109375,0.109375 0,0.03125 0,0.046875 0.1875,0.234375 0.984375,0.984375 1.546875,2.5625 1.546875,4.640625 0,1.71875 -0.359375,3.46875 -1.59375,4.71875 C 0.5625,2.34375 0.5625,2.359375 0.5625,2.390625 0.5625,2.453125 0.609375,2.5 0.671875,2.5 0.765625,2.5 1.671875,1.8125 2.25,0.546875 2.765625,-0.546875 2.875,-1.65625 2.875,-2.5 Z m 0,0"
             style="stroke:none;stroke-width:0"
             inkscape:connector-curvature="0" />
        </g>
        <g
           id="g1775"
           style="fill:#000000;fill-opacity:1">
          <path
             id="path1773"
             transform="translate(330.801,146.72)"
             d="m 4.84375,-3.796875 c 0.046875,-0.140625 0.046875,-0.15625 0.046875,-0.234375 0,-0.171875 -0.140625,-0.265625 -0.296875,-0.265625 -0.09375,0 -0.25,0.0625 -0.34375,0.203125 -0.015625,0.0625 -0.109375,0.359375 -0.140625,0.546875 -0.078125,0.25 -0.140625,0.53125 -0.203125,0.796875 l -0.453125,1.796875 c -0.03125,0.140625 -0.46875,0.84375 -1.125,0.84375 -0.5,0 -0.609375,-0.4375 -0.609375,-0.8125 C 1.71875,-1.375 1.890625,-2 2.21875,-2.875 2.375,-3.28125 2.421875,-3.390625 2.421875,-3.59375 c 0,-0.4375 -0.3125,-0.8125 -0.8125,-0.8125 -0.953125,0 -1.3125,1.453125 -1.3125,1.53125 0,0.109375 0.09375,0.109375 0.109375,0.109375 0.109375,0 0.109375,-0.03125 0.15625,-0.1875 0.28125,-0.9375 0.671875,-1.234375 1.015625,-1.234375 0.078125,0 0.25,0 0.25,0.3125 0,0.25 -0.109375,0.515625 -0.171875,0.703125 -0.40625,1.0625 -0.578125,1.625 -0.578125,2.09375 0,0.890625 0.625,1.1875 1.21875,1.1875 0.390625,0 0.71875,-0.171875 1,-0.453125 -0.125,0.515625 -0.25,1.015625 -0.640625,1.546875 -0.265625,0.328125 -0.640625,0.625 -1.09375,0.625 -0.140625,0 -0.59375,-0.03125 -0.765625,-0.421875 0.15625,0 0.296875,0 0.421875,-0.125 C 1.328125,1.203125 1.421875,1.0625 1.421875,0.875 1.421875,0.5625 1.15625,0.53125 1.0625,0.53125 0.828125,0.53125 0.5,0.6875 0.5,1.171875 c 0,0.5 0.4375,0.875 1.0625,0.875 1.015625,0 2.046875,-0.90625 2.328125,-2.03125 z m 0,0"
             style="stroke:none;stroke-width:0"
             inkscape:connector-curvature="0" />
        </g>
      </g>
    </g>
    <g
       id="g1850"
       ns1:jacobian_sqrt="0.860951"
       ns1:alignment="middle center"
       ns1:scale="2.4404896119"
       ns1:preamble="/usr/share/inkscape/extensions/textext/default_packages.tex"
       ns1:text="$$y$$"
       ns1:pdfconverter="pdf2svg"
       ns1:texconverter="pdflatex"
       ns1:version="0.10.1"
       transform="matrix(0.860951,0,0,0.860951,-114.4684,-62.820279)">
      <g
         id="g1848">
        <g
           id="g1846"
           style="fill:#000000;fill-opacity:1">
          <path
             id="path1844"
             transform="translate(303.003,146.72)"
             d="m 4.84375,-3.796875 c 0.046875,-0.140625 0.046875,-0.15625 0.046875,-0.234375 0,-0.171875 -0.140625,-0.265625 -0.296875,-0.265625 -0.09375,0 -0.25,0.0625 -0.34375,0.203125 -0.015625,0.0625 -0.109375,0.359375 -0.140625,0.546875 -0.078125,0.25 -0.140625,0.53125 -0.203125,0.796875 l -0.453125,1.796875 c -0.03125,0.140625 -0.46875,0.84375 -1.125,0.84375 -0.5,0 -0.609375,-0.4375 -0.609375,-0.8125 C 1.71875,-1.375 1.890625,-2 2.21875,-2.875 2.375,-3.28125 2.421875,-3.390625 2.421875,-3.59375 c 0,-0.4375 -0.3125,-0.8125 -0.8125,-0.8125 -0.953125,0 -1.3125,1.453125 -1.3125,1.53125 0,0.109375 0.09375,0.109375 0.109375,0.109375 0.109375,0 0.109375,-0.03125 0.15625,-0.1875 0.28125,-0.9375 0.671875,-1.234375 1.015625,-1.234375 0.078125,0 0.25,0 0.25,0.3125 0,0.25 -0.109375,0.515625 -0.171875,0.703125 -0.40625,1.0625 -0.578125,1.625 -0.578125,2.09375 0,0.890625 0.625,1.1875 1.21875,1.1875 0.390625,0 0.71875,-0.171875 1,-0.453125 -0.125,0.515625 -0.25,1.015625 -0.640625,1.546875 -0.265625,0.328125 -0.640625,0.625 -1.09375,0.625 -0.140625,0 -0.59375,-0.03125 -0.765625,-0.421875 0.15625,0 0.296875,0 0.421875,-0.125 C 1.328125,1.203125 1.421875,1.0625 1.421875,0.875 1.421875,0.5625 1.15625,0.53125 1.0625,0.53125 0.828125,0.53125 0.5,0.6875 0.5,1.171875 c 0,0.5 0.4375,0.875 1.0625,0.875 1.015625,0 2.046875,-0.90625 2.328125,-2.03125 z m 0,0"
             style="stroke:none;stroke-width:0"
             inkscape:connector-curvature="0" />
        </g>
      </g>
    </g>
    <circle
       style="opacity:1;fill:#cf0000;fill-opacity:1;stroke:none;stroke-width:0.26499999;stroke-linecap:round;stroke-miterlimit:4;stroke-dasharray:0.795, 0.265;stroke-dashoffset:0;stroke-opacity:1"
       id="path1871"
       cx="113.50629"
       cy="48.556248"
       r="1.3229166" />
  </g>
</svg>
