<?xml version="1.0" encoding="UTF-8" standalone="no"?>
<!-- Created with Inkscape (http://www.inkscape.org/) -->

<svg
   xmlns:ns1="http://www.iki.fi/pav/software/textext/"
   xmlns:dc="http://purl.org/dc/elements/1.1/"
   xmlns:cc="http://creativecommons.org/ns#"
   xmlns:rdf="http://www.w3.org/1999/02/22-rdf-syntax-ns#"
   xmlns:svg="http://www.w3.org/2000/svg"
   xmlns="http://www.w3.org/2000/svg"
   xmlns:sodipodi="http://sodipodi.sourceforge.net/DTD/sodipodi-0.dtd"
   xmlns:inkscape="http://www.inkscape.org/namespaces/inkscape"
   width="147.28674mm"
   height="82.4552mm"
   viewBox="0 0 147.28674 82.4552"
   version="1.1"
   id="svg8"
   inkscape:version="0.92.4 5da689c313, 2019-01-14"
   sodipodi:docname="elbow.svg">
  <defs
     id="defs2">
    <marker
       inkscape:stockid="Arrow2Lend"
       orient="auto"
       refY="0"
       refX="0"
       id="marker4808"
       style="overflow:visible"
       inkscape:isstock="true">
      <path
         id="path4806"
         style="fill:#000000;fill-opacity:1;fill-rule:evenodd;stroke:#000000;stroke-width:0.625;stroke-linejoin:round;stroke-opacity:1"
         d="M 8.7185878,4.0337352 -2.2072895,0.01601326 8.7185884,-4.0017078 c -1.7454984,2.3720609 -1.7354408,5.6174519 -6e-7,8.035443 z"
         transform="matrix(-1.1,0,0,-1.1,-1.1,0)"
         inkscape:connector-curvature="0" />
    </marker>
    <marker
       inkscape:stockid="Arrow2Lend"
       orient="auto"
       refY="0"
       refX="0"
       id="Arrow2Lend"
       style="overflow:visible"
       inkscape:isstock="true">
      <path
         id="path4543"
         style="fill:#000000;fill-opacity:1;fill-rule:evenodd;stroke:#000000;stroke-width:0.625;stroke-linejoin:round;stroke-opacity:1"
         d="M 8.7185878,4.0337352 -2.2072895,0.01601326 8.7185884,-4.0017078 c -1.7454984,2.3720609 -1.7354408,5.6174519 -6e-7,8.035443 z"
         transform="matrix(-1.1,0,0,-1.1,-1.1,0)"
         inkscape:connector-curvature="0" />
    </marker>
  </defs>
  <sodipodi:namedview
     id="base"
     pagecolor="#ffffff"
     bordercolor="#666666"
     borderopacity="1.0"
     inkscape:pageopacity="0.0"
     inkscape:pageshadow="2"
     inkscape:zoom="5.6"
     inkscape:cx="197.98371"
     inkscape:cy="106.14058"
     inkscape:document-units="mm"
     inkscape:current-layer="layer1"
     showgrid="true"
     inkscape:window-width="1920"
     inkscape:window-height="1015"
     inkscape:window-x="0"
     inkscape:window-y="0"
     inkscape:window-maximized="1"
     fit-margin-top="0"
     fit-margin-left="0"
     fit-margin-right="0"
     fit-margin-bottom="0">
    <inkscape:grid
       type="xygrid"
       id="grid4518"
       originx="-17.197915"
       originy="-120.88022" />
  </sodipodi:namedview>
  <metadata
     id="metadata5">
    <rdf:RDF>
      <cc:Work
         rdf:about="">
        <dc:format>image/svg+xml</dc:format>
        <dc:type
           rdf:resource="http://purl.org/dc/dcmitype/StillImage" />
        <dc:title></dc:title>
      </cc:Work>
    </rdf:RDF>
  </metadata>
  <g
     inkscape:label="Calque 1"
     inkscape:groupmode="layer"
     id="layer1"
     transform="translate(-17.197916,-93.664583)">
    <path
       style="fill:none;fill-rule:evenodd;stroke:#000000;stroke-width:0.26499999;stroke-linecap:butt;stroke-linejoin:miter;stroke-miterlimit:4;stroke-dasharray:none;stroke-opacity:1;marker-end:url(#Arrow2Lend)"
       d="M 17.197916,167.35417 H 164.04166"
       id="path4520"
       inkscape:connector-curvature="0" />
    <path
       style="fill:#ff0000;fill-opacity:1;fill-rule:evenodd;stroke:#e10039;stroke-width:0.80000001;stroke-linecap:square;stroke-linejoin:miter;stroke-miterlimit:4;stroke-dasharray:none;stroke-opacity:1"
       d="m 27.78125,166.825 c 0,-58.20834 0,-72.760417 0,-72.760417"
       id="path4940"
       inkscape:connector-curvature="0" />
    <path
       style="fill:none;fill-rule:evenodd;stroke:#e10039;stroke-width:0.80000001;stroke-linecap:butt;stroke-linejoin:miter;stroke-miterlimit:4;stroke-dasharray:none;stroke-opacity:1"
       d="m 38.364583,167.35417 v -63.5"
       id="path4999"
       inkscape:connector-curvature="0" />
    <path
       style="fill:none;fill-rule:evenodd;stroke:#e10039;stroke-width:0.80000001;stroke-linecap:butt;stroke-linejoin:miter;stroke-miterlimit:4;stroke-dasharray:none;stroke-opacity:1"
       d="M 48.947916,167.35417 V 113.11458"
       id="path5001"
       inkscape:connector-curvature="0" />
    <path
       style="fill:none;fill-rule:evenodd;stroke:#e10039;stroke-width:0.80000001;stroke-linecap:butt;stroke-linejoin:miter;stroke-miterlimit:4;stroke-dasharray:none;stroke-opacity:1"
       d="M 59.729015,167.35417 V 118.40625"
       id="path5003"
       inkscape:connector-curvature="0" />
    <path
       style="fill:none;fill-rule:evenodd;stroke:#e10039;stroke-width:0.80000001;stroke-linecap:butt;stroke-linejoin:miter;stroke-miterlimit:4;stroke-dasharray:none;stroke-opacity:1"
       d="M 70.245531,167.35417 V 156.77083"
       id="path5005"
       inkscape:connector-curvature="0" />
    <path
       style="fill:none;fill-rule:evenodd;stroke:#e10039;stroke-width:0.80000001;stroke-linecap:butt;stroke-linejoin:miter;stroke-miterlimit:4;stroke-dasharray:none;stroke-opacity:1"
       d="m 80.566967,167.35417 v -9.26042"
       id="path5007"
       inkscape:connector-curvature="0" />
    <path
       style="fill:none;fill-rule:evenodd;stroke:#e10039;stroke-width:0.89442706;stroke-linecap:butt;stroke-linejoin:miter;stroke-miterlimit:4;stroke-dasharray:none;stroke-opacity:1"
       d="m 91.219803,167.35417 v -6.61459"
       id="path5009"
       inkscape:connector-curvature="0" />
    <path
       style="fill:none;fill-rule:evenodd;stroke:#e10039;stroke-width:0.80000001;stroke-linecap:butt;stroke-linejoin:miter;stroke-miterlimit:4;stroke-dasharray:none;stroke-opacity:1"
       d="M 101.86459,167.35417 V 162.0625"
       id="path5011"
       inkscape:connector-curvature="0" />
    <path
       style="fill:none;fill-rule:evenodd;stroke:#e10039;stroke-width:0.80000001;stroke-linecap:butt;stroke-linejoin:miter;stroke-miterlimit:4;stroke-dasharray:none;stroke-opacity:1"
       d="m 112.44793,167.35417 v -3.96875"
       id="path5013"
       inkscape:connector-curvature="0" />
    <path
       style="fill:none;fill-rule:evenodd;stroke:#e10039;stroke-width:0.80000001;stroke-linecap:butt;stroke-linejoin:miter;stroke-miterlimit:4;stroke-dasharray:none;stroke-opacity:1"
       d="m 123.03125,167.35417 v -3.96875 0 1.98437"
       id="path5015"
       inkscape:connector-curvature="0" />
    <path
       style="fill:none;fill-rule:evenodd;stroke:#e10039;stroke-width:0.80000001;stroke-linecap:butt;stroke-linejoin:miter;stroke-miterlimit:4;stroke-dasharray:none;stroke-opacity:1"
       d="m 133.61458,167.35417 v -2.64584"
       id="path5017"
       inkscape:connector-curvature="0" />
    <g
       id="g5213"
       ns1:jacobian_sqrt="0.528142"
       ns1:alignment="middle center"
       ns1:scale="1.49709567257"
       ns1:preamble="/usr/share/inkscape/extensions/textext/default_packages.tex"
       ns1:text="\\LARGE$$\\sigma_1$$"
       ns1:pdfconverter="pdf2svg"
       ns1:texconverter="pdflatex"
       ns1:version="0.10.1"
       transform="matrix(0.528142,0,0,0.528142,-133.3606,90.28054)">
      <g
         id="surface1">
        <g
           id="g5206"
           style="fill:#000000;fill-opacity:1">
          <path
             id="path5204"
             transform="translate(297.658,156.682)"
             d="m 8.75,-6.484375 c 0.21875,0 0.796875,0 0.796875,-0.5625 0,-0.375 -0.328125,-0.375 -0.640625,-0.375 h -3.8125 c -2.578125,0 -4.4375,2.875 -4.4375,4.90625 0,1.46875 0.9375,2.6875 2.5,2.6875 2.03125,0 4.25,-2.1875 4.25,-4.765625 0,-0.671875 -0.15625,-1.328125 -0.578125,-1.890625 z m -5.578125,6.3125 c -0.875,0 -1.515625,-0.671875 -1.515625,-1.859375 0,-1.03125 0.609375,-4.453125 3.140625,-4.453125 0.75,0 1.578125,0.359375 1.578125,1.6875 C 6.375,-4.203125 6.09375,-2.75 5.5,-1.75 4.875,-0.734375 3.9375,-0.171875 3.171875,-0.171875 Z m 0,0"
             style="stroke:none;stroke-width:0"
             inkscape:connector-curvature="0" />
        </g>
        <g
           id="g5210"
           style="fill:#000000;fill-opacity:1">
          <path
             id="path5208"
             transform="translate(307.239,159.265)"
             d="m 3.4375,-7.65625 c 0,-0.28125 0,-0.296875 -0.234375,-0.296875 C 2.921875,-7.625 2.3125,-7.1875 1.09375,-7.1875 v 0.34375 c 0.265625,0 0.859375,0 1.53125,-0.296875 v 6.21875 c 0,0.4375 -0.046875,0.578125 -1.09375,0.578125 h -0.375 V 0 c 0.328125,-0.03125 1.484375,-0.03125 1.875,-0.03125 0.40625,0 1.546875,0 1.875,0.03125 v -0.34375 h -0.375 c -1.046875,0 -1.09375,-0.140625 -1.09375,-0.578125 z m 0,0"
             style="stroke:none;stroke-width:0"
             inkscape:connector-curvature="0" />
        </g>
      </g>
    </g>
    <g
       id="g5395"
       ns1:jacobian_sqrt="0.528142"
       ns1:alignment="middle center"
       ns1:scale="1.49709564422"
       ns1:preamble="/usr/share/inkscape/extensions/textext/default_packages.tex"
       ns1:text="\\LARGE$$\\sigma_{{\\rm rank}(A)}$$"
       ns1:pdfconverter="pdf2svg"
       ns1:texconverter="pdflatex"
       ns1:version="0.10.1"
       transform="matrix(0.528142,0,0,0.528142,-20.587027,90.181042)">
      <g
         id="g5393">
        <g
           id="g5371"
           style="fill:#000000;fill-opacity:1">
          <path
             id="path5369"
             transform="translate(280.101,156.682)"
             d="m 8.75,-6.484375 c 0.21875,0 0.796875,0 0.796875,-0.5625 0,-0.375 -0.328125,-0.375 -0.640625,-0.375 h -3.8125 c -2.578125,0 -4.4375,2.875 -4.4375,4.90625 0,1.46875 0.9375,2.6875 2.5,2.6875 2.03125,0 4.25,-2.1875 4.25,-4.765625 0,-0.671875 -0.15625,-1.328125 -0.578125,-1.890625 z m -5.578125,6.3125 c -0.875,0 -1.515625,-0.671875 -1.515625,-1.859375 0,-1.03125 0.609375,-4.453125 3.140625,-4.453125 0.75,0 1.578125,0.359375 1.578125,1.6875 C 6.375,-4.203125 6.09375,-2.75 5.5,-1.75 4.875,-0.734375 3.9375,-0.171875 3.171875,-0.171875 Z m 0,0"
             style="stroke:none;stroke-width:0"
             inkscape:connector-curvature="0" />
        </g>
        <g
           id="g5383"
           style="fill:#000000;fill-opacity:1">
          <path
             id="path5373"
             transform="translate(289.682,159.719)"
             d="m 2,-2.78125 c 0,-1.15625 0.46875,-2.25 1.390625,-2.25 0.09375,0 0.125,0 0.171875,0.015625 -0.09375,0.046875 -0.28125,0.109375 -0.28125,0.4375 0,0.34375 0.265625,0.484375 0.453125,0.484375 0.25,0 0.484375,-0.15625 0.484375,-0.484375 0,-0.359375 -0.328125,-0.6875 -0.84375,-0.6875 -1.015625,0 -1.359375,1.09375 -1.421875,1.328125 H 1.9375 v -1.328125 l -1.609375,0.125 v 0.34375 c 0.8125,0 0.921875,0.09375 0.921875,0.671875 v 3.234375 c 0,0.546875 -0.140625,0.546875 -0.921875,0.546875 V 0 c 0.34375,-0.03125 1,-0.03125 1.359375,-0.03125 0.328125,0 1.171875,0 1.4375,0.03125 V -0.34375 H 2.890625 C 2.015625,-0.34375 2,-0.484375 2,-0.90625 Z m 0,0"
             style="stroke:none;stroke-width:0"
             inkscape:connector-curvature="0" />
          <path
             id="path5375"
             transform="translate(294.23454,159.719)"
             d="m 4.609375,-3.1875 c 0,-0.65625 0,-1.125 -0.515625,-1.59375 C 3.671875,-5.15625 3.125,-5.328125 2.609375,-5.328125 1.625,-5.328125 0.875,-4.6875 0.875,-3.90625 c 0,0.34375 0.21875,0.515625 0.5,0.515625 0.28125,0 0.484375,-0.203125 0.484375,-0.5 C 1.859375,-4.375 1.4375,-4.375 1.25,-4.375 c 0.28125,-0.5 0.859375,-0.71875 1.328125,-0.71875 0.546875,0 1.265625,0.453125 1.265625,1.53125 v 0.484375 c -2.40625,0.03125 -3.3125,1.03125 -3.3125,1.953125 0,0.953125 1.09375,1.25 1.828125,1.25 0.78125,0 1.328125,-0.484375 1.546875,-1.0625 0.046875,0.5625 0.421875,1 0.9375,1 0.25,0 0.9375,-0.171875 0.9375,-1.125 V -1.734375 H 5.515625 V -1.0625 c 0,0.6875 -0.28125,0.78125 -0.453125,0.78125 -0.453125,0 -0.453125,-0.640625 -0.453125,-0.8125 z m -0.765625,1.5 c 0,1.171875 -0.875,1.5625 -1.390625,1.5625 -0.59375,0 -1.078125,-0.421875 -1.078125,-1 0,-1.578125 2.03125,-1.71875 2.46875,-1.75 z m 0,0"
             style="stroke:none;stroke-width:0"
             inkscape:connector-curvature="0" />
          <path
             id="path5377"
             transform="translate(300.08781,159.719)"
             d="m 5.3125,-2.90625 c 0,-1.109375 0,-1.4375 -0.265625,-1.828125 -0.34375,-0.46875 -0.90625,-0.53125 -1.3125,-0.53125 -1.171875,0 -1.625,0.984375 -1.71875,1.21875 v -1.21875 l -1.640625,0.125 v 0.34375 c 0.8125,0 0.921875,0.09375 0.921875,0.671875 v 3.234375 c 0,0.546875 -0.140625,0.546875 -0.921875,0.546875 V 0 c 0.3125,-0.03125 0.96875,-0.03125 1.296875,-0.03125 0.34375,0 1,0 1.296875,0.03125 v -0.34375 c -0.75,0 -0.90625,0 -0.90625,-0.546875 v -2.21875 c 0,-1.25 0.828125,-1.921875 1.578125,-1.921875 0.734375,0 0.90625,0.609375 0.90625,1.34375 v 2.796875 c 0,0.546875 -0.140625,0.546875 -0.90625,0.546875 V 0 c 0.296875,-0.03125 0.953125,-0.03125 1.28125,-0.03125 0.34375,0 1,0 1.3125,0.03125 v -0.34375 c -0.609375,0 -0.90625,0 -0.921875,-0.359375 z m 0,0"
             style="stroke:none;stroke-width:0"
             inkscape:connector-curvature="0" />
          <path
             id="path5379"
             transform="translate(306.59143,159.719)"
             d="m 3.34375,-3.171875 c 0,0 -0.078125,-0.109375 -0.078125,-0.109375 0,-0.046875 0.75,-0.6875 0.84375,-0.78125 C 4.9375,-4.78125 5.46875,-4.796875 5.71875,-4.8125 V -5.15625 C 5.46875,-5.125 5.15625,-5.125 4.8125,-5.125 c -0.3125,0 -0.921875,0 -1.203125,-0.03125 v 0.34375 c 0.203125,0.015625 0.34375,0.125 0.34375,0.3125 0,0.25 -0.234375,0.453125 -0.25,0.453125 L 2,-2.53125 V -8.296875 L 0.328125,-8.15625 v 0.34375 c 0.8125,0 0.921875,0.078125 0.921875,0.671875 v 6.25 c 0,0.546875 -0.140625,0.546875 -0.921875,0.546875 V 0 c 0.34375,-0.03125 0.921875,-0.03125 1.28125,-0.03125 0.34375,0 0.921875,0 1.265625,0.03125 v -0.34375 c -0.765625,0 -0.921875,0 -0.921875,-0.546875 V -2.15625 L 2.71875,-2.828125 3.875,-1.171875 c 0.171875,0.25 0.265625,0.390625 0.265625,0.546875 0,0.21875 -0.171875,0.28125 -0.421875,0.28125 V 0 c 0.296875,-0.03125 0.890625,-0.03125 1.203125,-0.03125 0.515625,0 0.546875,0 1.046875,0.03125 v -0.34375 c -0.3125,0 -0.6875,0 -1.015625,-0.5 z m 0,0"
             style="stroke:none;stroke-width:0"
             inkscape:connector-curvature="0" />
          <path
             id="path5381"
             transform="translate(312.76988,159.719)"
             d="m 3.890625,2.90625 c 0,-0.03125 0,-0.0625 -0.203125,-0.265625 C 2.484375,1.4375 1.8125,-0.53125 1.8125,-2.96875 c 0,-2.328125 0.5625,-4.328125 1.953125,-5.734375 0.125,-0.109375 0.125,-0.125 0.125,-0.171875 0,-0.0625 -0.0625,-0.09375 -0.109375,-0.09375 -0.15625,0 -1.140625,0.859375 -1.71875,2.03125 -0.609375,1.21875 -0.890625,2.484375 -0.890625,3.96875 0,1.0625 0.171875,2.484375 0.78125,3.75 C 2.671875,2.21875 3.640625,3 3.78125,3 3.828125,3 3.890625,2.96875 3.890625,2.90625 Z m 0,0"
             style="stroke:none;stroke-width:0"
             inkscape:connector-curvature="0" />
        </g>
        <g
           id="g5387"
           style="fill:#000000;fill-opacity:1">
          <path
             id="path5385"
             transform="translate(317.321,159.719)"
             d="M 2.03125,-1.328125 C 1.609375,-0.625 1.203125,-0.375 0.640625,-0.34375 0.5,-0.328125 0.40625,-0.328125 0.40625,-0.125 c 0,0.078125 0.0625,0.125 0.140625,0.125 0.21875,0 0.75,-0.03125 0.96875,-0.03125 C 1.859375,-0.03125 2.25,0 2.578125,0 c 0.078125,0 0.21875,0 0.21875,-0.234375 0,-0.09375 -0.09375,-0.109375 -0.171875,-0.109375 -0.265625,-0.03125 -0.5,-0.125 -0.5,-0.40625 0,-0.171875 0.078125,-0.296875 0.234375,-0.5625 l 0.90625,-1.515625 H 6.3125 c 0.015625,0.109375 0.015625,0.203125 0.015625,0.3125 0.046875,0.3125 0.1875,1.5625 0.1875,1.78125 0,0.359375 -0.609375,0.390625 -0.796875,0.390625 -0.140625,0 -0.265625,0 -0.265625,0.21875 C 5.453125,0 5.5625,0 5.625,0 5.828125,0 6.078125,-0.03125 6.28125,-0.03125 H 6.953125 C 7.6875,-0.03125 8.21875,0 8.21875,0 8.3125,0 8.4375,0 8.4375,-0.234375 8.4375,-0.34375 8.328125,-0.34375 8.15625,-0.34375 7.5,-0.34375 7.484375,-0.453125 7.453125,-0.8125 L 6.71875,-8.265625 c -0.03125,-0.25 -0.078125,-0.265625 -0.203125,-0.265625 -0.125,0 -0.1875,0.015625 -0.296875,0.203125 z M 3.46875,-3.171875 5.875,-7.1875 6.28125,-3.171875 Z m 0,0"
             style="stroke:none;stroke-width:0"
             inkscape:connector-curvature="0" />
        </g>
        <g
           id="g5391"
           style="fill:#000000;fill-opacity:1">
          <path
             id="path5389"
             transform="translate(326.096,159.719)"
             d="M 3.375,-2.96875 C 3.375,-3.890625 3.25,-5.359375 2.578125,-6.75 1.875,-8.1875 0.890625,-8.96875 0.765625,-8.96875 c -0.046875,0 -0.109375,0.03125 -0.109375,0.09375 0,0.046875 0,0.0625 0.203125,0.265625 1.203125,1.203125 1.859375,3.1875 1.859375,5.625 0,2.3125 -0.5625,4.3125 -1.9375,5.71875 C 0.65625,2.84375 0.65625,2.875 0.65625,2.90625 0.65625,2.96875 0.71875,3 0.765625,3 0.921875,3 1.90625,2.140625 2.484375,0.96875 3.09375,-0.25 3.375,-1.546875 3.375,-2.96875 Z m 0,0"
             style="stroke:none;stroke-width:0"
             inkscape:connector-curvature="0" />
        </g>
      </g>
    </g>
    <g
       id="g5488"
       ns1:jacobian_sqrt="0.528142"
       ns1:alignment="middle center"
       ns1:scale="1.49709564422"
       ns1:preamble="/usr/share/inkscape/extensions/textext/default_packages.tex"
       ns1:text="\\LARGE$$\\sigma_2$$"
       ns1:pdfconverter="pdf2svg"
       ns1:texconverter="pdflatex"
       ns1:version="0.10.1"
       transform="matrix(0.528142,0,0,0.528142,-122.68317,90.28049)">
      <g
         id="g5486">
        <g
           id="g5480"
           style="fill:#000000;fill-opacity:1">
          <path
             id="path5478"
             transform="translate(297.658,156.682)"
             d="m 8.75,-6.484375 c 0.21875,0 0.796875,0 0.796875,-0.5625 0,-0.375 -0.328125,-0.375 -0.640625,-0.375 h -3.8125 c -2.578125,0 -4.4375,2.875 -4.4375,4.90625 0,1.46875 0.9375,2.6875 2.5,2.6875 2.03125,0 4.25,-2.1875 4.25,-4.765625 0,-0.671875 -0.15625,-1.328125 -0.578125,-1.890625 z m -5.578125,6.3125 c -0.875,0 -1.515625,-0.671875 -1.515625,-1.859375 0,-1.03125 0.609375,-4.453125 3.140625,-4.453125 0.75,0 1.578125,0.359375 1.578125,1.6875 C 6.375,-4.203125 6.09375,-2.75 5.5,-1.75 4.875,-0.734375 3.9375,-0.171875 3.171875,-0.171875 Z m 0,0"
             style="stroke:none;stroke-width:0"
             inkscape:connector-curvature="0" />
        </g>
        <g
           id="g5484"
           style="fill:#000000;fill-opacity:1">
          <path
             id="path5482"
             transform="translate(307.239,159.265)"
             d="M 5.265625,-2.015625 H 5 c -0.046875,0.203125 -0.140625,0.875 -0.25,1.0625 C 4.65625,-0.84375 3.984375,-0.84375 3.625,-0.84375 H 1.40625 c 0.328125,-0.28125 1.0625,-1.046875 1.359375,-1.328125 1.828125,-1.671875 2.5,-2.296875 2.5,-3.484375 0,-1.375 -1.09375,-2.296875 -2.484375,-2.296875 -1.375,0 -2.203125,1.1875 -2.203125,2.21875 0,0.609375 0.53125,0.609375 0.5625,0.609375 0.265625,0 0.5625,-0.1875 0.5625,-0.5625 0,-0.34375 -0.21875,-0.5625 -0.5625,-0.5625 -0.09375,0 -0.125,0 -0.15625,0.015625 0.21875,-0.8125 0.875,-1.375 1.640625,-1.375 1.015625,0 1.640625,0.859375 1.640625,1.953125 C 4.265625,-4.640625 3.6875,-3.75 3,-2.984375 L 0.578125,-0.28125 V 0 h 4.375 z m 0,0"
             style="stroke:none;stroke-width:0"
             inkscape:connector-curvature="0" />
        </g>
      </g>
    </g>
    <g
       id="g5567"
       ns1:jacobian_sqrt="0.528142"
       ns1:alignment="middle center"
       ns1:scale="1.49709564422"
       ns1:preamble="/usr/share/inkscape/extensions/textext/default_packages.tex"
       ns1:text="\\LARGE$$\\sigma_3$$"
       ns1:pdfconverter="pdf2svg"
       ns1:texconverter="pdflatex"
       ns1:version="0.10.1"
       transform="matrix(0.528142,0,0,0.528142,-111.78442,90.271169)">
      <g
         id="g5565">
        <g
           id="g5559"
           style="fill:#000000;fill-opacity:1">
          <path
             id="path5557"
             transform="translate(297.658,156.682)"
             d="m 8.75,-6.484375 c 0.21875,0 0.796875,0 0.796875,-0.5625 0,-0.375 -0.328125,-0.375 -0.640625,-0.375 h -3.8125 c -2.578125,0 -4.4375,2.875 -4.4375,4.90625 0,1.46875 0.9375,2.6875 2.5,2.6875 2.03125,0 4.25,-2.1875 4.25,-4.765625 0,-0.671875 -0.15625,-1.328125 -0.578125,-1.890625 z m -5.578125,6.3125 c -0.875,0 -1.515625,-0.671875 -1.515625,-1.859375 0,-1.03125 0.609375,-4.453125 3.140625,-4.453125 0.75,0 1.578125,0.359375 1.578125,1.6875 C 6.375,-4.203125 6.09375,-2.75 5.5,-1.75 4.875,-0.734375 3.9375,-0.171875 3.171875,-0.171875 Z m 0,0"
             style="stroke:none;stroke-width:0"
             inkscape:connector-curvature="0" />
        </g>
        <g
           id="g5563"
           style="fill:#000000;fill-opacity:1">
          <path
             id="path5561"
             transform="translate(307.239,159.265)"
             d="m 2.203125,-4.296875 c -0.203125,0.015625 -0.25,0.03125 -0.25,0.140625 0,0.109375 0.0625,0.109375 0.265625,0.109375 h 0.546875 c 1.03125,0 1.484375,0.84375 1.484375,1.984375 0,1.578125 -0.8125,1.984375 -1.40625,1.984375 -0.578125,0 -1.546875,-0.265625 -1.90625,-1.0625 0.390625,0.0625 0.734375,-0.15625 0.734375,-0.578125 0,-0.34375 -0.25,-0.59375 -0.578125,-0.59375 -0.296875,0 -0.609375,0.171875 -0.609375,0.625 0,1.0625 1.0625,1.9375 2.390625,1.9375 1.421875,0 2.484375,-1.09375 2.484375,-2.296875 C 5.359375,-3.140625 4.46875,-4 3.328125,-4.203125 4.359375,-4.5 5.03125,-5.375 5.03125,-6.3125 c 0,-0.9375 -0.984375,-1.640625 -2.140625,-1.640625 -1.1875,0 -2.078125,0.734375 -2.078125,1.609375 0,0.46875 0.375,0.578125 0.546875,0.578125 0.25,0 0.546875,-0.1875 0.546875,-0.546875 0,-0.375 -0.296875,-0.546875 -0.5625,-0.546875 -0.0625,0 -0.09375,0 -0.125,0.015625 0.453125,-0.8125 1.578125,-0.8125 1.640625,-0.8125 0.390625,0 1.171875,0.171875 1.171875,1.34375 0,0.234375 -0.03125,0.890625 -0.390625,1.40625 C 3.28125,-4.375 2.875,-4.34375 2.5625,-4.328125 Z m 0,0"
             style="stroke:none;stroke-width:0"
             inkscape:connector-curvature="0" />
        </g>
      </g>
    </g>
    <g
       id="g5684"
       ns1:jacobian_sqrt="0.528142"
       inkscapeversion="0.92.4"
       ns1:alignment="middle center"
       ns1:scale="1.49709564422"
       ns1:preamble="/usr/share/inkscape/extensions/textext/default_packages.tex"
       ns1:text="\\LARGE$$\\sigma_4$$"
       ns1:pdfconverter="pdf2svg"
       ns1:texconverter="pdflatex"
       ns1:version="0.10.1"
       transform="matrix(0.528142,0,0,0.528142,-101.28958,90.280489)">
      <g
         id="g5682">
        <g
           id="g5676"
           style="fill:#000000;fill-opacity:1">
          <path
             id="path5674"
             transform="translate(297.658,156.682)"
             d="m 8.75,-6.484375 c 0.21875,0 0.796875,0 0.796875,-0.5625 0,-0.375 -0.328125,-0.375 -0.640625,-0.375 h -3.8125 c -2.578125,0 -4.4375,2.875 -4.4375,4.90625 0,1.46875 0.9375,2.6875 2.5,2.6875 2.03125,0 4.25,-2.1875 4.25,-4.765625 0,-0.671875 -0.15625,-1.328125 -0.578125,-1.890625 z m -5.578125,6.3125 c -0.875,0 -1.515625,-0.671875 -1.515625,-1.859375 0,-1.03125 0.609375,-4.453125 3.140625,-4.453125 0.75,0 1.578125,0.359375 1.578125,1.6875 C 6.375,-4.203125 6.09375,-2.75 5.5,-1.75 4.875,-0.734375 3.9375,-0.171875 3.171875,-0.171875 Z m 0,0"
             style="stroke:none;stroke-width:0"
             inkscape:connector-curvature="0" />
        </g>
        <g
           id="g5680"
           style="fill:#000000;fill-opacity:1">
          <path
             id="path5678"
             transform="translate(307.239,159.265)"
             d="m 4.3125,-7.78125 c 0,-0.234375 0,-0.28125 -0.171875,-0.28125 -0.09375,0 -0.125,0 -0.21875,0.140625 L 0.328125,-2.34375 V -2 H 3.46875 v 1.09375 c 0,0.4375 -0.03125,0.5625 -0.90625,0.5625 H 2.328125 V 0 c 0.28125,-0.03125 1.21875,-0.03125 1.5625,-0.03125 0.328125,0 1.28125,0 1.5625,0.03125 V -0.34375 H 5.21875 c -0.875,0 -0.90625,-0.125 -0.90625,-0.5625 V -2 H 5.515625 V -2.34375 H 4.3125 Z m -0.78125,0.9375 v 4.5 H 0.625 Z m 0,0"
             style="stroke:none;stroke-width:0"
             inkscape:connector-curvature="0" />
        </g>
      </g>
    </g>
    <g
       id="g5767"
       ns1:jacobian_sqrt="0.528142"
       inkscapeversion="0.92.4"
       ns1:alignment="middle center"
       ns1:scale="1.49709564422"
       ns1:preamble="/usr/share/inkscape/extensions/textext/default_packages.tex"
       ns1:text="\\LARGE $$\\cdots$$"
       ns1:pdfconverter="pdf2svg"
       ns1:texconverter="pdflatex"
       ns1:version="0.10.1"
       transform="matrix(0.528142,0,0,0.528142,-63.066092,91.306489)">
      <g
         id="g5765">
        <g
           id="g5755"
           style="fill:#000000;fill-opacity:1">
          <path
             id="path5753"
             transform="translate(294.147,156.682)"
             d="m 3.3125,-4.3125 c 0,-0.484375 -0.421875,-0.90625 -0.921875,-0.90625 -0.5,0 -0.90625,0.421875 -0.90625,0.90625 0,0.5 0.40625,0.921875 0.90625,0.921875 0.5,0 0.921875,-0.421875 0.921875,-0.921875 z m 0,0"
             style="stroke:none;stroke-width:0"
             inkscape:connector-curvature="0" />
        </g>
        <g
           id="g5759"
           style="fill:#000000;fill-opacity:1">
          <path
             id="path5757"
             transform="translate(301.80441,156.682)"
             d="m 3.3125,-4.3125 c 0,-0.484375 -0.421875,-0.90625 -0.921875,-0.90625 -0.5,0 -0.90625,0.421875 -0.90625,0.90625 0,0.5 0.40625,0.921875 0.90625,0.921875 0.5,0 0.921875,-0.421875 0.921875,-0.921875 z m 0,0"
             style="stroke:none;stroke-width:0"
             inkscape:connector-curvature="0" />
        </g>
        <g
           id="g5763"
           style="fill:#000000;fill-opacity:1">
          <path
             id="path5761"
             transform="translate(309.4446,156.682)"
             d="m 3.3125,-4.3125 c 0,-0.484375 -0.421875,-0.90625 -0.921875,-0.90625 -0.5,0 -0.90625,0.421875 -0.90625,0.90625 0,0.5 0.40625,0.921875 0.90625,0.921875 0.5,0 0.921875,-0.421875 0.921875,-0.921875 z m 0,0"
             style="stroke:none;stroke-width:0"
             inkscape:connector-curvature="0" />
        </g>
      </g>
    </g>
  </g>
</svg>
