<?xml version="1.0" encoding="UTF-8" standalone="no"?>
<svg
   xmlns:ns1="http://www.iki.fi/pav/software/textext/"
   xmlns:dc="http://purl.org/dc/elements/1.1/"
   xmlns:cc="http://creativecommons.org/ns#"
   xmlns:rdf="http://www.w3.org/1999/02/22-rdf-syntax-ns#"
   xmlns:svg="http://www.w3.org/2000/svg"
   xmlns="http://www.w3.org/2000/svg"
   xmlns:xlink="http://www.w3.org/1999/xlink"
   xmlns:sodipodi="http://sodipodi.sourceforge.net/DTD/sodipodi-0.dtd"
   xmlns:inkscape="http://www.inkscape.org/namespaces/inkscape"
   version="1.1"
   viewBox="-1.5 3.5 9.7690392 8.6870584"
   id="svg148"
   sodipodi:docname="svd.svg"
   width="9.7690392"
   height="8.6870584"
   inkscape:version="0.92.4 5da689c313, 2019-01-14">
  <metadata
     id="metadata152">
    <rdf:RDF>
      <cc:Work
         rdf:about="">
        <dc:format>image/svg+xml</dc:format>
        <dc:type
           rdf:resource="http://purl.org/dc/dcmitype/StillImage" />
        <dc:title>Singular Value Decomposition</dc:title>
      </cc:Work>
    </rdf:RDF>
  </metadata>
  <sodipodi:namedview
     pagecolor="#ffffff"
     bordercolor="#666666"
     borderopacity="1"
     objecttolerance="10"
     gridtolerance="10"
     guidetolerance="10"
     inkscape:pageopacity="0"
     inkscape:pageshadow="2"
     inkscape:window-width="1920"
     inkscape:window-height="1015"
     id="namedview150"
     showgrid="false"
     inkscape:zoom="70.264084"
     inkscape:cx="4.8500044"
     inkscape:cy="4.7055876"
     inkscape:window-x="0"
     inkscape:window-y="0"
     inkscape:window-maximized="1"
     inkscape:current-layer="svg148"
     fit-margin-top="0"
     fit-margin-left="0"
     fit-margin-right="0"
     fit-margin-bottom="0" />
  <title
     id="title2">Singular Value Decomposition</title>
  <desc
     id="desc4">

This is the File
   http://commons.wikimedia.org/wiki/File:Singular-Value-Decomposition.svg

Singular Value Decomposition of the 2-dimensional Shearing

M = ( 1 1 )
    ( 0 1 )

The Image shows:

Upper Left:
	The unit Disc with the two canonical unit Vectors

Upper Right:
	Unit Disc et al. transformed with M and signular Values
	sigma_1 and sigma_2 indicated

Lower Left:
	The Action of V^* on the Unit disc. This is a just
	Rotation.

Lower Right:
	The Action of Sigma * V^* on the Unit disc. Sigma scales in
	vertically and horizontally.

The this special Case the singularValues are Phi and 1/Phi where
Phi is the Golden Ratio. V^* is a (counter clockwise) Rotation by
an angle alpha where alpha satisfies tan(alpha) = -Phi.
U is a Rotation by beta with tan(beta) = Phi-1

</desc>
  <defs
     id="defs58">
    <!-- TeX Computer Modern -->
    <path
       id="M"
       d="M 9.234,-6.047 C 9.328,-6.406 9.344,-6.5 10.09,-6.5 c 0.22,0 0.32,0 0.32,-0.203 0,-0.109 -0.1,-0.109 -0.27,-0.109 H 8.828 c -0.265,0 -0.281,0 -0.39,0.187 L 4.797,-0.9375 4.016,-6.578 C 3.984,-6.812 3.969,-6.812 3.703,-6.812 H 2.344 c -0.188,0 -0.297,0 -0.297,0.187 0,0.125 0.094,0.125 0.281,0.125 0.141,0 0.313,0.016 0.438,0.016 0.156,0.031 0.218,0.047 0.218,0.172 0,0.031 -0.015,0.062 -0.046,0.187 l -1.266,5.063 c -0.094,0.4058 -0.266,0.7183 -1.0783,0.7495 -0.0468,0 -0.1718,0.0156 -0.1718,0.1875 C 0.4219,-0.0312 0.4844,0 0.5625,0 0.875,0 1.219,-0.0312 1.562,-0.0312 1.891,-0.0312 2.25,0 2.578,0 c 0.047,0 0.188,0 0.188,-0.2031 0,-0.1094 -0.11,-0.1094 -0.188,-0.1094 -0.562,0 -0.672,-0.2031 -0.672,-0.4375 0,-0.0625 0,-0.125 0.031,-0.2344 l 1.36,-5.4216 h 0.016 l 0.859,6.1716 C 4.187,-0.1094 4.203,0 4.312,0 4.422,0 4.484,-0.1094 4.531,-0.1719 L 8.563,-6.484 h 0.015 l -1.437,5.7028 c -0.094,0.3906 -0.11,0.4687 -0.907,0.4687 -0.156,0 -0.265,0 -0.265,0.1875 C 5.969,0 6.078,0 6.109,0 6.391,0 7.062,-0.0312 7.344,-0.0312 7.75,-0.0312 8.188,0 8.594,0 c 0.062,0 0.187,0 0.187,-0.2031 0,-0.1094 -0.093,-0.1094 -0.281,-0.1094 -0.359,0 -0.641,0 -0.641,-0.1719 0,-0.0468 0,-0.0625 0.047,-0.25 z"
       inkscape:connector-curvature="0" />
    <path
       id="U"
       d="m 6.328,-5.766 c 0.109,-0.406 0.281,-0.703 1.078,-0.734 0.047,0 0.172,-0.016 0.172,-0.203 0,0 0,-0.109 -0.125,-0.109 -0.328,0 -0.687,0.031 -1.016,0.031 -0.343,0 -0.718,-0.031 -1.046,-0.031 -0.063,0 -0.172,0 -0.172,0.203 0,0.109 0.093,0.109 0.172,0.109 0.578,0.016 0.687,0.219 0.687,0.438 0,0.031 -0.031,0.187 -0.031,0.203 l -0.906,3.562 c -0.329,1.3439 -1.485,2.2033 -2.485,2.2033 -0.672,0 -1.203,-0.4375 -1.203,-1.2973 0,-0.015 0,-0.328 0.109,-0.765 L 2.516,-6.047 C 2.609,-6.406 2.625,-6.5 3.359,-6.5 c 0.266,0 0.344,0 0.344,-0.203 0,-0.109 -0.109,-0.109 -0.14,-0.109 -0.282,0 -1,0.031 -1.282,0.031 -0.281,0 -1,-0.031 -1.281,-0.031 -0.0781,0 -0.1875,0 -0.1875,0.203 0,0.109 0.0781,0.109 0.2815,0.109 0.015,0 0.203,0 0.375,0.016 0.172,0.031 0.265,0.031 0.265,0.172 0,0.046 -0.109,0.468 -0.172,0.703 L 1.344,-4.734 C 1.25,-4.344 0.7812,-2.469 0.7344,-2.266 0.6719,-2 0.6719,-1.844 0.6719,-1.687 c 0,1.2026 0.9061,1.9057 1.9531,1.9057 1.25,0 2.484,-1.125 2.812,-2.4377 z"
       inkscape:connector-curvature="0" />
    <path
       id="V"
       d="M 6.266,-5.672 C 6.75,-6.453 7.172,-6.484 7.531,-6.5 c 0.125,-0.016 0.141,-0.172 0.141,-0.187 0,-0.079 -0.063,-0.125 -0.141,-0.125 -0.25,0 -0.547,0.031 -0.812,0.031 -0.328,0 -0.672,-0.031 -0.985,-0.031 -0.062,0 -0.187,0 -0.187,0.187 0,0.109 0.078,0.125 0.156,0.125 0.266,0.016 0.453,0.125 0.453,0.328 0,0.156 -0.14,0.375 -0.14,0.375 L 2.953,-0.9219 2.266,-6.203 c 0,-0.172 0.234,-0.297 0.687,-0.297 0.141,0 0.25,0 0.25,-0.203 0,-0.078 -0.078,-0.109 -0.125,-0.109 -0.406,0 -0.828,0.031 -1.25,0.031 -0.172,0 -0.359,0 -0.547,0 -0.172,0 -0.3591,-0.031 -0.531,-0.031 -0.0781,0 -0.1875,0 -0.1875,0.187 0,0.125 0.0781,0.125 0.25,0.125 0.5465,0 0.5625,0.094 0.5935,0.344 l 0.782,6.1404 c 0.031,0.2031 0.078,0.2343 0.203,0.2343 0.156,0 0.203,-0.0468 0.281,-0.1718 z"
       inkscape:connector-curvature="0" />
    <path
       id="Sigma"
       d="m 3.703,-3.25 c 0.094,-0.094 0.094,-0.141 0.094,-0.156 0,-0.047 -0.031,-0.11 -0.063,-0.141 L 1.687,-6.5 h 2.297 c 1.688,0 2.188,0.359 2.391,1.938 h 0.25 L 6.344,-6.812 H 0.8125 c -0.2344,0 -0.25,0 -0.25,0.234 L 3.047,-2.969 0.6719,-0.2656 C 0.5625,-0.1562 0.5625,-0.1406 0.5625,-0.1094 0.5625,0 0.6719,0 0.8125,0 H 6.344 l 0.281,-2.359 h -0.25 c -0.172,1.6715 -0.859,1.9371 -2.422,1.9371 h -2.75 z"
       inkscape:connector-curvature="0" />
    <path
       id="sigma"
       d="m 5.156,-3.719 c 0.141,0 0.5,0 0.5,-0.343 0,-0.235 -0.219,-0.235 -0.39,-0.235 H 2.984 c -1.5,0 -2.609,1.641 -2.609,2.828 0,0.8753 0.5938,1.5784 1.5,1.5784 1.172,0 2.5,-1.2034 2.5,-2.7344 0,-0.172 0,-0.656 -0.313,-1.094 z M 1.891,-0.1094 C 1.391,-0.1094 1,-0.4687 1,-1.187 c 0,-0.297 0.109,-1.11 0.469,-1.704 0.422,-0.687 1.015,-0.828 1.359,-0.828 0.828,0 0.906,0.656 0.906,0.969 0,0.469 -0.203,1.281 -0.531,1.7969 -0.39,0.5781 -0.937,0.8437 -1.312,0.8437 z"
       inkscape:connector-curvature="0" />
    <path
       id="eq"
       d="m 6.844,-3.266 c 0.156,0 0.343,0 0.343,-0.187 C 7.187,-3.656 7,-3.656 6.859,-3.656 H 0.8906 c -0.1406,0 -0.3281,0 -0.3281,0.203 0,0.187 0.1875,0.187 0.3281,0.187 z m 0.015,1.938 c 0.141,0 0.328,0 0.328,-0.203 C 7.187,-1.719 7,-1.719 6.844,-1.719 H 0.8906 c -0.1406,0 -0.3281,0 -0.3281,0.188 0,0.203 0.1875,0.203 0.3281,0.203 z"
       inkscape:connector-curvature="0" />
    <path
       id="cdot"
       d="m 1.906,-2.5 c 0,-0.281 -0.234,-0.516 -0.515,-0.516 -0.297,0 -0.5316,0.235 -0.5316,0.516 0,0.297 0.2346,0.531 0.5316,0.531 0.281,0 0.515,-0.234 0.515,-0.531 z"
       inkscape:connector-curvature="0" />
    <path
       id="_1"
       d="m 2.328,-4.437 c 0,-0.188 0,-0.188 -0.203,-0.188 -0.453,0.438 -1.078,0.438 -1.3594,0.438 v 0.249 c 0.1563,0 0.6254,0 1.0004,-0.187 v 3.5469 c 0,0.2344 0,0.3281 -0.688,0.3281 H 0.8125 V 0 C 0.9375,0 1.797,-0.0312 2.047,-0.0312 2.266,-0.0312 3.141,0 3.297,0 V -0.25 H 3.031 c -0.703,0 -0.703,-0.0937 -0.703,-0.3281 z"
       inkscape:connector-curvature="0" />
    <path
       id="_2"
       d="M 3.516,-1.266 H 3.281 C 3.266,-1.109 3.188,-0.7031 3.094,-0.6406 3.047,-0.5937 2.516,-0.5937 2.406,-0.5937 H 1.125 C 1.859,-1.234 2.109,-1.437 2.516,-1.766 c 0.515,-0.406 1,-0.843 1,-1.5 0,-0.843 -0.735,-1.359 -1.625,-1.359 -0.86,0 -1.4535,0.609 -1.4535,1.25 0,0.344 0.2969,0.391 0.375,0.391 0.1563,0 0.3595,-0.125 0.3595,-0.375 0,-0.125 -0.047,-0.375 -0.4064,-0.375 0.2188,-0.485 0.6874,-0.641 1.0154,-0.641 0.703,0 1.063,0.547 1.063,1.109 0,0.61 -0.438,1.078 -0.656,1.329 L 0.5156,-0.2656 C 0.4375,-0.2031 0.4375,-0.1875 0.4375,0 H 3.313 Z"
       inkscape:connector-curvature="0" />
    <path
       id="_ast"
       d="m 3.281,-2.188 c 0.094,-0.031 0.172,-0.078 0.172,-0.203 0,-0.093 -0.078,-0.218 -0.219,-0.218 -0.046,0 -0.078,0.015 -0.14,0.062 L 2.125,-1.906 2.234,-2.953 2.25,-3.047 c 0,-0.078 -0.078,-0.187 -0.219,-0.187 -0.14,0 -0.219,0.093 -0.219,0.187 l 0.125,1.141 -0.9526,-0.641 c -0.0938,-0.047 -0.125,-0.062 -0.1563,-0.062 -0.125,0 -0.2187,0.125 -0.2187,0.218 0,0.125 0.0781,0.172 0.1718,0.203 l 1.0308,0.454 -1.0308,0.437 c -0.0937,0.047 -0.1718,0.078 -0.1718,0.203 0,0.094 0.0937,0.219 0.2187,0.219 0.0625,0 0.0782,-0.0156 0.1407,-0.0625 L 1.937,-1.562 1.812,-0.4375 c 0,0.0938 0.079,0.2031 0.219,0.2031 0.141,0 0.219,-0.1093 0.219,-0.2031 0,-0.0312 -0.125,-1.1095 -0.125,-1.1245 0.219,0.125 0.516,0.328 0.859,0.562 0.188,0.125 0.204,0.125 0.25,0.125 0.141,0 0.219,-0.125 0.219,-0.219 0,-0.125 -0.094,-0.172 -0.14,-0.203 C 2.969,-1.437 2.609,-1.594 2.25,-1.734 Z"
       inkscape:connector-curvature="0" />
    <style
       type="text/css"
       id="style16">
	#fill    { stroke:none; fill:#6af; fill-opacity:1}
	.arrow   {fill:#000; stroke-width:0.04; stroke:#000;}
	.x-arrow {fill:#f08; stroke-width:0.06; stroke:#f08;}
	.y-arrow {fill:#fc0; stroke-width:0.06; stroke:#fc0;}
	.sigma   {fill:none; stroke-width:0.06; stroke:#00c;}
	.O- {fill:#08e; stroke:none;}
</style>
    <!-- Head of Arrow -->
    <path
       id="head"
       transform="scale(0.5)"
       d="M -1,0 -6,4 6,0 -6,-5 Z"
       inkscape:connector-curvature="0" />
    <!-- Arrow -->
    <marker
       id="Arrow"
       refX="6"
       refY="5"
       markerUnits="strokeWidth"
       markerWidth="12"
       markerHeight="9"
       orient="auto">
      <g
         transform="matrix(1.25,0,0,1.25,6,5)"
         class="arrow"
         id="g21"
         style="fill:#000000;stroke:#000000;stroke-width:0.04">
        <use
           xlink:href="#head"
           id="use19"
           x="0"
           y="0"
           width="100%"
           height="100%" />
      </g>
    </marker>
    <!-- x-Arrow -->
    <marker
       id="ArrowX"
       refX="6"
       refY="5"
       markerUnits="strokeWidth"
       markerWidth="12"
       markerHeight="9"
       orient="auto">
      <g
         transform="translate(6,5)"
         class="x-arrow"
         id="g26"
         style="fill:#ff0088;stroke:#ff0088;stroke-width:0.06">
        <use
           xlink:href="#head"
           id="use24"
           x="0"
           y="0"
           width="100%"
           height="100%" />
      </g>
    </marker>
    <!-- x-Arrow -->
    <marker
       id="ArrowY"
       refX="6"
       refY="5"
       markerUnits="strokeWidth"
       markerWidth="12"
       markerHeight="9"
       orient="auto">
      <g
         transform="translate(6,5)"
         class="y-arrow"
         id="g31"
         style="fill:#ffcc00;stroke:#ffcc00;stroke-width:0.06">
        <use
           xlink:href="#head"
           id="use29"
           x="0"
           y="0"
           width="100%"
           height="100%" />
      </g>
    </marker>
    <!-- Singular Value Indicators -->
    <g
       id="sigma-1-2">
      <path
         d="M 0,0 H 1.618"
         id="path34"
         inkscape:connector-curvature="0" />
      <path
         d="M 0,0 V 0.618"
         id="path36"
         inkscape:connector-curvature="0" />
    </g>
    <!-- Unit Circle -->
    <circle
       id="fill"
       r="1"
       cx="0"
       cy="0"
       style="fill:#66aaff;fill-opacity:1;stroke:none" />
    <!-- Identity -->
    <g
       id="f_id">
      <use
         xlink:href="#fill"
         id="use40"
         x="0"
         y="0"
         width="100%"
         height="100%" />
      <path
         class="x-arrow"
         d="M 0,0 H 0.82"
         id="path42"
         inkscape:connector-curvature="0"
         style="fill:#ff0088;stroke:#ff0088;stroke-width:0.06;marker-end:url(#ArrowX)" />
      <path
         class="y-arrow"
         d="M 0,0 V 0.82"
         id="path44"
         inkscape:connector-curvature="0"
         style="fill:#ffcc00;stroke:#ffcc00;stroke-width:0.06;marker-end:url(#ArrowY)" />
    </g>
    <!-- Sigma * V^* -->
    <g
       id="f_S-Vstar">
      <use
         xlink:href="#fill"
         transform="scale(1.618,0.618)"
         id="use47"
         x="0"
         y="0"
         width="100%"
         height="100%" />
      <use
         xlink:href="#sigma-1-2"
         class="sigma"
         id="use49"
         style="fill:none;stroke:#0000cc;stroke-width:0.06"
         x="0"
         y="0"
         width="100%"
         height="100%" />
      <g
         transform="rotate(-31.717)"
         id="g55">
        <path
           class="x-arrow"
           d="M 0,0 H 0.82"
           id="path51"
           inkscape:connector-curvature="0"
           style="fill:#ff0088;stroke:#ff0088;stroke-width:0.06;marker-end:url(#ArrowX)" />
        <path
           class="y-arrow"
           d="M 0,0 0.87272,0.87272"
           id="path53"
           inkscape:connector-curvature="0"
           style="fill:#ffcc00;stroke:#ffcc00;stroke-width:0.06;marker-end:url(#ArrowY)" />
      </g>
    </g>
  </defs>
  <!-- ########################################################################## -->
  <!-- Background for good Contrast -->
  <rect
     x="-1.5"
     y="3.5"
     width="99.201401%"
     height="99.839554%"
     id="rect60"
     style="fill:#ffffff;fill-opacity:0.7;stroke-width:0.99519974" />
  <!-- Unit Disc and its Transformations -->
  <g
     transform="matrix(1,0,0,-1,-0.21348035,9.8007517)"
     id="g86">
    <!-- Upper Left: Identity -->
    <g
       transform="matrix(1.2,0,0,1.2,0,5)"
       id="g68">
      <use
         xlink:href="#f_id"
         id="use62"
         x="0"
         y="0"
         width="100%"
         height="100%" />
      <path
         class="arrow"
         d="M 1.5,0 H 3.2"
         id="path64"
         inkscape:connector-curvature="0"
         style="fill:#000000;stroke:#000000;stroke-width:0.04;marker-end:url(#Arrow)" />
      <path
         class="arrow"
         d="M 0,-1.2 V -2.9"
         id="path66"
         inkscape:connector-curvature="0"
         style="fill:#000000;stroke:#000000;stroke-width:0.04;marker-end:url(#Arrow)" />
    </g>
    <!-- Upper Right: M -->
    <g
       transform="matrix(1.2,0,0,1.2,6.5,5)"
       id="g72">
      <use
         xlink:href="#f_S-Vstar"
         transform="rotate(31.717)"
         id="use70"
         x="0"
         y="0"
         width="100%"
         height="100%" />
    </g>
    <!-- Lower Left: V^star -->
    <g
       transform="scale(1.2)"
       id="g78">
      <path
         class="arrow"
         d="M 1.5,0 H 3.2"
         id="path74"
         inkscape:connector-curvature="0"
         style="fill:#000000;stroke:#000000;stroke-width:0.04;marker-end:url(#Arrow)" />
      <use
         xlink:href="#f_id"
         transform="rotate(-58.28)"
         id="use76"
         x="0"
         y="0"
         width="100%"
         height="100%" />
    </g>
    <!-- Lower Right: Sigma * V^star -->
    <g
       transform="matrix(1.2,0,0,1.2,6.5,0)"
       id="g84">
      <path
         class="arrow"
         d="M 0,1.1 V 2.8"
         id="path80"
         inkscape:connector-curvature="0"
         style="fill:#000000;stroke:#000000;stroke-width:0.04;marker-end:url(#Arrow)" />
      <use
         xlink:href="#f_S-Vstar"
         id="use82"
         x="0"
         y="0"
         width="100%"
         height="100%" />
    </g>
  </g>
  <!-- Labels -->
  <g
     transform="matrix(0.05,0,0,0.05,7.5865196,9.8007517)"
     id="g92">
    <use
       xlink:href="#sigma"
       x="-5.5"
       y="7"
       id="use88"
       width="100%"
       height="100%" />
    <use
       xlink:href="#_1"
       x="0.25"
       y="8.3999996"
       id="use90"
       width="100%"
       height="100%" />
  </g>
  <g
     transform="matrix(0.05,0,0,0.05,6.3365196,9.5007517)"
     id="g98">
    <use
       xlink:href="#sigma"
       x="-13.5"
       y="1"
       id="use94"
       width="100%"
       height="100%" />
    <use
       xlink:href="#_2"
       x="-7.8499999"
       y="2.5"
       id="use96"
       width="100%"
       height="100%" />
  </g>
  <g
     transform="matrix(0.05,0,0,0.05,7.2865196,4.1507517)"
     id="g104">
    <use
       xlink:href="#sigma"
       x="1.7"
       y="6"
       id="use100"
       width="100%"
       height="100%" />
    <use
       xlink:href="#_1"
       x="7.4000001"
       y="7.5"
       id="use102"
       width="100%"
       height="100%" />
  </g>
  <g
     transform="matrix(0.05,0,0,0.05,6.0865196,4.4007517)"
     id="g110">
    <use
       xlink:href="#sigma"
       x="-12.6"
       y="6"
       id="use106"
       width="100%"
       height="100%" />
    <use
       xlink:href="#_2"
       x="-7"
       y="7.5"
       id="use108"
       width="100%"
       height="100%" />
  </g>
  <g
     id="g1097"
     ns1:jacobian_sqrt="3.779528"
     ns1:alignment="middle center"
     ns1:scale="2.83464566935"
     ns1:preamble="/home/leo/T\xc3\xa9l\xc3\xa9chargements/ste/preamble.sty"
     ns1:text="$M$"
     ns1:pdfconverter="pdf2svg"
     ns1:texconverter="pdflatex"
     ns1:version="0.10.1"
     transform="matrix(0.0805386,0,0,0.08285819,-9.6537019,-6.5504358)">
    <g
       id="surface1">
      <g
         id="g1094"
         style="fill:#000000;fill-opacity:1">
        <path
           id="path1092"
           transform="translate(148.712,134.765)"
           d="M 8.78125,-0.203125 C 8.78125,-0.3125 8.6875,-0.3125 8.5,-0.3125 c -0.359375,0 -0.640625,0 -0.640625,-0.171875 0,-0.046875 0,-0.0625 0.046875,-0.25 l 1.328125,-5.3125 C 9.328125,-6.40625 9.34375,-6.5 10.09375,-6.5 c 0.21875,0 0.3125,0 0.3125,-0.203125 0,-0.109375 -0.09375,-0.109375 -0.265625,-0.109375 h -1.3125 c -0.265625,0 -0.28125,0 -0.390625,0.1875 L 4.796875,-0.9375 4.015625,-6.578125 C 3.984375,-6.8125 3.96875,-6.8125 3.703125,-6.8125 H 2.34375 c -0.1875,0 -0.296875,0 -0.296875,0.1875 0,0.125 0.09375,0.125 0.28125,0.125 0.140625,0 0.3125,0.015625 0.4375,0.015625 0.15625,0.03125 0.21875,0.046875 0.21875,0.171875 0,0.03125 -0.015625,0.0625 -0.046875,0.1875 l -1.265625,5.0625 c -0.09375,0.40625 -0.265625,0.71875 -1.078125,0.75 -0.046875,0 -0.171875,0.015625 -0.171875,0.1875 0,0.09375 0.0625,0.125 0.140625,0.125 0.3125,0 0.65625,-0.03125 1,-0.03125 C 1.890625,-0.03125 2.25,0 2.578125,0 c 0.046875,0 0.1875,0 0.1875,-0.203125 0,-0.109375 -0.109375,-0.109375 -0.1875,-0.109375 -0.5625,0 -0.671875,-0.203125 -0.671875,-0.4375 0,-0.0625 0,-0.125 0.03125,-0.234375 L 3.296875,-6.40625 H 3.3125 l 0.859375,6.171875 C 4.1875,-0.109375 4.203125,0 4.3125,0 4.421875,0 4.484375,-0.109375 4.53125,-0.171875 l 4.03125,-6.3125 h 0.015625 l -1.4375,5.703125 c -0.09375,0.390625 -0.109375,0.46875 -0.90625,0.46875 -0.15625,0 -0.265625,0 -0.265625,0.1875 C 5.96875,0 6.078125,0 6.109375,0 L 7.34375,-0.03125 C 7.75,-0.03125 8.1875,0 8.59375,0 c 0.0625,0 0.1875,0 0.1875,-0.203125 z m 0,0"
           style="stroke:none;stroke-width:0"
           inkscape:connector-curvature="0" />
      </g>
    </g>
  </g>
  <g
     id="g1323"
     ns1:jacobian_sqrt="0.0816902715261"
     ns1:alignment="middle center"
     ns1:scale="0.0612676145992"
     ns1:preamble="/home/leo/T\xc3\xa9l\xc3\xa9chargements/ste/preamble.sty"
     ns1:text="$V^{\\mathsf{T}}$"
     ns1:pdfconverter="pdf2svg"
     ns1:texconverter="pdflatex"
     ns1:version="0.10.1"
     transform="matrix(0.080539,0,0,0.082858,-12.015909,-3.5274553)">
    <g
       id="g1321">
      <g
         id="g1315"
         style="fill:#000000;fill-opacity:1">
        <path
           id="path1313"
           transform="translate(148.712,134.765)"
           d="m 7.671875,-6.6875 c 0,-0.078125 -0.0625,-0.125 -0.140625,-0.125 -0.25,0 -0.546875,0.03125 -0.8125,0.03125 -0.328125,0 -0.671875,-0.03125 -0.984375,-0.03125 -0.0625,0 -0.1875,0 -0.1875,0.1875 0,0.109375 0.078125,0.125 0.15625,0.125 0.265625,0.015625 0.453125,0.125 0.453125,0.328125 0,0.15625 -0.140625,0.375 -0.140625,0.375 l -3.0625,4.875 -0.6875,-5.28125 C 2.265625,-6.375 2.5,-6.5 2.953125,-6.5 c 0.140625,0 0.25,0 0.25,-0.203125 0,-0.078125 -0.078125,-0.109375 -0.125,-0.109375 -0.40625,0 -0.828125,0.03125 -1.25,0.03125 -0.171875,0 -0.359375,0 -0.546875,0 -0.171875,0 -0.359375,-0.03125 -0.53125,-0.03125 -0.078125,0 -0.1875,0 -0.1875,0.1875 0,0.125 0.078125,0.125 0.25,0.125 0.546875,0 0.5625,0.09375 0.59375,0.34375 L 2.1875,-0.015625 C 2.21875,0.1875 2.265625,0.21875 2.390625,0.21875 c 0.15625,0 0.203125,-0.046875 0.28125,-0.171875 l 3.59375,-5.71875 C 6.75,-6.453125 7.171875,-6.484375 7.53125,-6.5 c 0.125,-0.015625 0.140625,-0.1875 0.140625,-0.1875 z m 0,0"
           style="stroke:none;stroke-width:0"
           inkscape:connector-curvature="0" />
      </g>
      <g
         id="g1319"
         style="fill:#000000;fill-opacity:1">
        <path
           id="path1317"
           transform="translate(156.738,131.149)"
           d="M 4.78125,-4.296875 V -4.78125 H 0.265625 v 0.484375 h 1 c 0.09375,0 0.171875,-0.015625 0.25,-0.015625 h 0.65625 V 0 H 2.875 v -4.3125 h 0.65625 c 0.078125,0 0.171875,0.015625 0.25,0.015625 z m 0,0"
           style="stroke:none;stroke-width:0"
           inkscape:connector-curvature="0" />
      </g>
    </g>
  </g>
  <g
     id="g1462"
     ns1:jacobian_sqrt="0.0816902715261"
     ns1:alignment="middle center"
     ns1:scale="0.0612676145992"
     ns1:preamble="/home/leo/T\xc3\xa9l\xc3\xa9chargements/ste/preamble.sty"
     ns1:text="$M = U \\Sigma V^{\\mathsf{T}}$"
     ns1:pdfconverter="pdf2svg"
     ns1:texconverter="pdflatex"
     ns1:version="0.10.1"
     transform="matrix(0.080539,0,0,0.082858,-10.731988,1.0054424)">
    <g
       id="g1460">
      <g
         id="g1438"
         style="fill:#000000;fill-opacity:1">
        <path
           id="path1436"
           transform="translate(148.712,134.765)"
           d="M 8.78125,-0.203125 C 8.78125,-0.3125 8.6875,-0.3125 8.5,-0.3125 c -0.359375,0 -0.640625,0 -0.640625,-0.171875 0,-0.046875 0,-0.0625 0.046875,-0.25 l 1.328125,-5.3125 C 9.328125,-6.40625 9.34375,-6.5 10.09375,-6.5 c 0.21875,0 0.3125,0 0.3125,-0.203125 0,-0.109375 -0.09375,-0.109375 -0.265625,-0.109375 h -1.3125 c -0.265625,0 -0.28125,0 -0.390625,0.1875 L 4.796875,-0.9375 4.015625,-6.578125 C 3.984375,-6.8125 3.96875,-6.8125 3.703125,-6.8125 H 2.34375 c -0.1875,0 -0.296875,0 -0.296875,0.1875 0,0.125 0.09375,0.125 0.28125,0.125 0.140625,0 0.3125,0.015625 0.4375,0.015625 0.15625,0.03125 0.21875,0.046875 0.21875,0.171875 0,0.03125 -0.015625,0.0625 -0.046875,0.1875 l -1.265625,5.0625 c -0.09375,0.40625 -0.265625,0.71875 -1.078125,0.75 -0.046875,0 -0.171875,0.015625 -0.171875,0.1875 0,0.09375 0.0625,0.125 0.140625,0.125 0.3125,0 0.65625,-0.03125 1,-0.03125 C 1.890625,-0.03125 2.25,0 2.578125,0 c 0.046875,0 0.1875,0 0.1875,-0.203125 0,-0.109375 -0.109375,-0.109375 -0.1875,-0.109375 -0.5625,0 -0.671875,-0.203125 -0.671875,-0.4375 0,-0.0625 0,-0.125 0.03125,-0.234375 L 3.296875,-6.40625 H 3.3125 l 0.859375,6.171875 C 4.1875,-0.109375 4.203125,0 4.3125,0 4.421875,0 4.484375,-0.109375 4.53125,-0.171875 l 4.03125,-6.3125 h 0.015625 l -1.4375,5.703125 c -0.09375,0.390625 -0.109375,0.46875 -0.90625,0.46875 -0.15625,0 -0.265625,0 -0.265625,0.1875 C 5.96875,0 6.078125,0 6.109375,0 L 7.34375,-0.03125 C 7.75,-0.03125 8.1875,0 8.59375,0 c 0.0625,0 0.1875,0 0.1875,-0.203125 z m 0,0"
           style="stroke:none;stroke-width:0"
           inkscape:connector-curvature="0" />
      </g>
      <g
         id="g1442"
         style="fill:#000000;fill-opacity:1">
        <path
           id="path1440"
           transform="translate(162.231,134.765)"
           d="M 7.1875,-3.453125 C 7.1875,-3.65625 7,-3.65625 6.859375,-3.65625 h -5.96875 c -0.140625,0 -0.328125,0 -0.328125,0.203125 0,0.1875 0.1875,0.1875 0.328125,0.1875 H 6.84375 c 0.15625,0 0.34375,0 0.34375,-0.1875 z m 0,1.921875 c 0,-0.1875 -0.1875,-0.1875 -0.34375,-0.1875 H 0.890625 c -0.140625,0 -0.328125,0 -0.328125,0.1875 0,0.203125 0.1875,0.203125 0.328125,0.203125 h 5.96875 c 0.140625,0 0.328125,0 0.328125,-0.203125 z m 0,0"
           style="stroke:none;stroke-width:0"
           inkscape:connector-curvature="0" />
      </g>
      <g
         id="g1446"
         style="fill:#000000;fill-opacity:1">
        <path
           id="path1444"
           transform="translate(172.747,134.765)"
           d="m 7.578125,-6.703125 c 0,0 0,-0.109375 -0.125,-0.109375 -0.328125,0 -0.6875,0.03125 -1.015625,0.03125 -0.34375,0 -0.71875,-0.03125 -1.046875,-0.03125 -0.0625,0 -0.171875,0 -0.171875,0.203125 C 5.21875,-6.5 5.3125,-6.5 5.390625,-6.5 c 0.578125,0.015625 0.6875,0.21875 0.6875,0.4375 0,0.03125 -0.03125,0.1875 -0.03125,0.203125 l -0.90625,3.5625 C 4.8125,-0.953125 3.65625,-0.09375 2.65625,-0.09375 c -0.671875,0 -1.203125,-0.4375 -1.203125,-1.296875 0,0 0,-0.328125 0.109375,-0.765625 L 2.515625,-6.046875 C 2.609375,-6.40625 2.625,-6.5 3.359375,-6.5 c 0.265625,0 0.34375,0 0.34375,-0.203125 C 3.703125,-6.8125 3.59375,-6.8125 3.5625,-6.8125 L 2.28125,-6.78125 1,-6.8125 c -0.078125,0 -0.1875,0 -0.1875,0.203125 C 0.8125,-6.5 0.890625,-6.5 1.09375,-6.5 c 0,0 0.203125,0 0.375,0.015625 0.171875,0.03125 0.265625,0.03125 0.265625,0.171875 0,0.046875 -0.109375,0.46875 -0.171875,0.703125 l -0.21875,0.875 -0.609375,2.46875 C 0.671875,-2 0.671875,-1.84375 0.671875,-1.6875 c 0,1.203125 0.90625,1.90625 1.953125,1.90625 1.25,0 2.484375,-1.125 2.8125,-2.4375 L 6.328125,-5.765625 C 6.4375,-6.171875 6.609375,-6.46875 7.40625,-6.5 c 0.046875,0 0.171875,-0.015625 0.171875,-0.203125 z m 0,0"
           style="stroke:none;stroke-width:0"
           inkscape:connector-curvature="0" />
      </g>
      <g
         id="g1450"
         style="fill:#000000;fill-opacity:1">
        <path
           id="path1448"
           transform="translate(180.636,134.765)"
           d="m 6.625,-2.359375 h -0.25 c -0.171875,1.671875 -0.859375,1.9375 -2.421875,1.9375 h -2.75 l 2.5,-2.828125 c 0.09375,-0.09375 0.09375,-0.15625 0.09375,-0.15625 0,-0.046875 -0.03125,-0.109375 -0.0625,-0.140625 L 1.6875,-6.5 h 2.296875 c 1.6875,0 2.1875,0.359375 2.390625,1.9375 h 0.25 l -0.28125,-2.25 H 0.8125 c -0.234375,0 -0.25,0 -0.25,0.234375 l 2.484375,3.609375 -2.375,2.703125 C 0.5625,-0.15625 0.5625,-0.140625 0.5625,-0.109375 0.5625,0 0.671875,0 0.8125,0 h 5.53125 z m 0,0"
           style="stroke:none;stroke-width:0"
           inkscape:connector-curvature="0" />
      </g>
      <g
         id="g1454"
         style="fill:#000000;fill-opacity:1">
        <path
           id="path1452"
           transform="translate(187.831,134.765)"
           d="m 7.671875,-6.6875 c 0,-0.078125 -0.0625,-0.125 -0.140625,-0.125 -0.25,0 -0.546875,0.03125 -0.8125,0.03125 -0.328125,0 -0.671875,-0.03125 -0.984375,-0.03125 -0.0625,0 -0.1875,0 -0.1875,0.1875 0,0.109375 0.078125,0.125 0.15625,0.125 0.265625,0.015625 0.453125,0.125 0.453125,0.328125 0,0.15625 -0.140625,0.375 -0.140625,0.375 l -3.0625,4.875 -0.6875,-5.28125 C 2.265625,-6.375 2.5,-6.5 2.953125,-6.5 c 0.140625,0 0.25,0 0.25,-0.203125 0,-0.078125 -0.078125,-0.109375 -0.125,-0.109375 -0.40625,0 -0.828125,0.03125 -1.25,0.03125 -0.171875,0 -0.359375,0 -0.546875,0 -0.171875,0 -0.359375,-0.03125 -0.53125,-0.03125 -0.078125,0 -0.1875,0 -0.1875,0.1875 0,0.125 0.078125,0.125 0.25,0.125 0.546875,0 0.5625,0.09375 0.59375,0.34375 L 2.1875,-0.015625 C 2.21875,0.1875 2.265625,0.21875 2.390625,0.21875 c 0.15625,0 0.203125,-0.046875 0.28125,-0.171875 l 3.59375,-5.71875 C 6.75,-6.453125 7.171875,-6.484375 7.53125,-6.5 c 0.125,-0.015625 0.140625,-0.1875 0.140625,-0.1875 z m 0,0"
           style="stroke:none;stroke-width:0"
           inkscape:connector-curvature="0" />
      </g>
      <g
         id="g1458"
         style="fill:#000000;fill-opacity:1">
        <path
           id="path1456"
           transform="translate(195.856,131.149)"
           d="M 4.78125,-4.296875 V -4.78125 H 0.265625 v 0.484375 h 1 c 0.09375,0 0.171875,-0.015625 0.25,-0.015625 h 0.65625 V 0 H 2.875 v -4.3125 h 0.65625 c 0.078125,0 0.171875,0.015625 0.25,0.015625 z m 0,0"
           style="stroke:none;stroke-width:0"
           inkscape:connector-curvature="0" />
      </g>
    </g>
  </g>
  <g
     id="g1615"
     ns1:jacobian_sqrt="0.0816902715261"
     ns1:alignment="middle center"
     ns1:scale="0.0612676145992"
     ns1:preamble="/home/leo/T\xc3\xa9l\xc3\xa9chargements/ste/preamble.sty"
     ns1:text="$\\Sigma$"
     ns1:pdfconverter="pdf2svg"
     ns1:texconverter="pdflatex"
     ns1:version="0.10.1"
     transform="matrix(0.080539,0,0,0.082858,-9.6108023,-1.5773337)">
    <g
       id="g1613">
      <g
         id="g1611"
         style="fill:#000000;fill-opacity:1">
        <path
           id="path1609"
           transform="translate(148.712,134.765)"
           d="m 6.625,-2.359375 h -0.25 c -0.171875,1.671875 -0.859375,1.9375 -2.421875,1.9375 h -2.75 l 2.5,-2.828125 c 0.09375,-0.09375 0.09375,-0.15625 0.09375,-0.15625 0,-0.046875 -0.03125,-0.109375 -0.0625,-0.140625 L 1.6875,-6.5 h 2.296875 c 1.6875,0 2.1875,0.359375 2.390625,1.9375 h 0.25 l -0.28125,-2.25 H 0.8125 c -0.234375,0 -0.25,0 -0.25,0.234375 l 2.484375,3.609375 -2.375,2.703125 C 0.5625,-0.15625 0.5625,-0.140625 0.5625,-0.109375 0.5625,0 0.671875,0 0.8125,0 h 5.53125 z m 0,0"
           style="stroke:none;stroke-width:0"
           inkscape:connector-curvature="0" />
      </g>
    </g>
  </g>
  <g
     id="g1722"
     ns1:jacobian_sqrt="0.0816902715261"
     ns1:alignment="middle center"
     ns1:scale="0.0612676145992"
     ns1:preamble="/home/leo/T\xc3\xa9l\xc3\xa9chargements/ste/preamble.sty"
     ns1:text="$U$"
     ns1:pdfconverter="pdf2svg"
     ns1:texconverter="pdflatex"
     ns1:version="0.10.1"
     transform="matrix(0.080539,0,0,0.082858,-5.4693745,-3.4009785)">
    <g
       id="g1720">
      <g
         id="g1718"
         style="fill:#000000;fill-opacity:1">
        <path
           id="path1716"
           transform="translate(148.712,134.765)"
           d="m 7.578125,-6.703125 c 0,0 0,-0.109375 -0.125,-0.109375 -0.328125,0 -0.6875,0.03125 -1.015625,0.03125 -0.34375,0 -0.71875,-0.03125 -1.046875,-0.03125 -0.0625,0 -0.171875,0 -0.171875,0.203125 C 5.21875,-6.5 5.3125,-6.5 5.390625,-6.5 c 0.578125,0.015625 0.6875,0.21875 0.6875,0.4375 0,0.03125 -0.03125,0.1875 -0.03125,0.203125 l -0.90625,3.5625 C 4.8125,-0.953125 3.65625,-0.09375 2.65625,-0.09375 c -0.671875,0 -1.203125,-0.4375 -1.203125,-1.296875 0,0 0,-0.328125 0.109375,-0.765625 L 2.515625,-6.046875 C 2.609375,-6.40625 2.625,-6.5 3.359375,-6.5 c 0.265625,0 0.34375,0 0.34375,-0.203125 C 3.703125,-6.8125 3.59375,-6.8125 3.5625,-6.8125 L 2.28125,-6.78125 1,-6.8125 c -0.078125,0 -0.1875,0 -0.1875,0.203125 C 0.8125,-6.5 0.890625,-6.5 1.09375,-6.5 c 0,0 0.203125,0 0.375,0.015625 0.171875,0.03125 0.265625,0.03125 0.265625,0.171875 0,0.046875 -0.109375,0.46875 -0.171875,0.703125 l -0.21875,0.875 -0.609375,2.46875 C 0.671875,-2 0.671875,-1.84375 0.671875,-1.6875 c 0,1.203125 0.90625,1.90625 1.953125,1.90625 1.25,0 2.484375,-1.125 2.8125,-2.4375 L 6.328125,-5.765625 C 6.4375,-6.171875 6.609375,-6.46875 7.40625,-6.5 c 0.046875,0 0.171875,-0.015625 0.171875,-0.203125 z m 0,0"
           style="stroke:none;stroke-width:0"
           inkscape:connector-curvature="0" />
      </g>
    </g>
  </g>
</svg>
