<?xml version="1.0" encoding="UTF-8" standalone="no"?>
<!-- Created with Inkscape (http://www.inkscape.org/) -->

<svg
   xmlns:ns1="http://www.iki.fi/pav/software/textext/"
   xmlns:dc="http://purl.org/dc/elements/1.1/"
   xmlns:cc="http://creativecommons.org/ns#"
   xmlns:rdf="http://www.w3.org/1999/02/22-rdf-syntax-ns#"
   xmlns:svg="http://www.w3.org/2000/svg"
   xmlns="http://www.w3.org/2000/svg"
   xmlns:sodipodi="http://sodipodi.sourceforge.net/DTD/sodipodi-0.dtd"
   xmlns:inkscape="http://www.inkscape.org/namespaces/inkscape"
   width="146.08855mm"
   height="98.166161mm"
   viewBox="0 0 146.08855 98.166161"
   version="1.1"
   id="svg8"
   inkscape:version="0.92.4 5da689c313, 2019-01-14"
   sodipodi:docname="gd_sgd.svg">
  <defs
     id="defs2">
    <inkscape:path-effect
       effect="spiro"
       id="path-effect1157"
       is_visible="true" />
    <inkscape:path-effect
       effect="simplify"
       id="path-effect1155"
       is_visible="true"
       steps="1"
       threshold="0.0982228"
       smooth_angles="360"
       helper_size="0"
       simplify_individual_paths="false"
       simplify_just_coalesce="false"
       simplifyindividualpaths="false"
       simplifyJustCoalesce="false" />
    <marker
       inkscape:stockid="Arrow2Lstart"
       orient="auto"
       refY="0"
       refX="0"
       id="Arrow2Lstart"
       style="overflow:visible"
       inkscape:isstock="true">
      <path
         id="path837"
         style="fill:#000000;fill-opacity:1;fill-rule:evenodd;stroke:#000000;stroke-width:0.625;stroke-linejoin:round;stroke-opacity:1"
         d="M 8.7185878,4.0337352 -2.2072895,0.01601326 8.7185884,-4.0017078 c -1.7454984,2.3720609 -1.7354408,5.6174519 -6e-7,8.035443 z"
         transform="matrix(1.1,0,0,1.1,1.1,0)"
         inkscape:connector-curvature="0" />
    </marker>
    <marker
       inkscape:stockid="Arrow2Lend"
       orient="auto"
       refY="0"
       refX="0"
       id="Arrow2Lend"
       style="overflow:visible"
       inkscape:isstock="true">
      <path
         id="path840"
         style="fill:#000000;fill-opacity:1;fill-rule:evenodd;stroke:#000000;stroke-width:0.625;stroke-linejoin:round;stroke-opacity:1"
         d="M 8.7185878,4.0337352 -2.2072895,0.01601326 8.7185884,-4.0017078 c -1.7454984,2.3720609 -1.7354408,5.6174519 -6e-7,8.035443 z"
         transform="matrix(-1.1,0,0,-1.1,-1.1,0)"
         inkscape:connector-curvature="0" />
    </marker>
    <clipPath
       id="clipPath">
      <rect
         y="24.479166"
         x="52.916664"
         height="52.916664"
         width="113.77083"
         id="rect1161"
         style="opacity:1;fill:none;fill-opacity:1;stroke:#b30000;stroke-width:0.26499999;stroke-linecap:square;stroke-miterlimit:4;stroke-dasharray:none;stroke-dashoffset:0;stroke-opacity:1" />
    </clipPath>
  </defs>
  <sodipodi:namedview
     id="base"
     pagecolor="#ffffff"
     bordercolor="#666666"
     borderopacity="1.0"
     inkscape:pageopacity="0.0"
     inkscape:pageshadow="2"
     inkscape:zoom="1.4"
     inkscape:cx="188.36639"
     inkscape:cy="188.80025"
     inkscape:document-units="mm"
     inkscape:current-layer="g3060"
     showgrid="true"
     inkscape:window-width="1920"
     inkscape:window-height="1015"
     inkscape:window-x="0"
     inkscape:window-y="0"
     inkscape:window-maximized="1"
     fit-margin-top="0"
     fit-margin-left="0"
     fit-margin-right="0"
     fit-margin-bottom="0">
    <inkscape:grid
       type="xygrid"
       id="grid815"
       originx="-21.023619"
       originy="-153.6127" />
  </sodipodi:namedview>
  <metadata
     id="metadata5">
    <rdf:RDF>
      <cc:Work
         rdf:about="">
        <dc:format>image/svg+xml</dc:format>
        <dc:type
           rdf:resource="http://purl.org/dc/dcmitype/StillImage" />
        <dc:title></dc:title>
      </cc:Work>
    </rdf:RDF>
  </metadata>
  <g
     inkscape:label="Calque 1"
     inkscape:groupmode="layer"
     id="layer1"
     transform="translate(-21.023618,-45.221163)">
    <path
       style="fill:none;fill-rule:evenodd;stroke:#000000;stroke-width:0.25402969;stroke-linecap:butt;stroke-linejoin:miter;stroke-miterlimit:4;stroke-dasharray:none;stroke-opacity:1;marker-start:url(#Arrow2Lstart);marker-end:url(#Arrow2Lend)"
       d="M 166.6875,135.60417 H 31.75 V 45.645825"
       id="path817"
       inkscape:connector-curvature="0" />
    <path
       style="fill:none;fill-rule:evenodd;stroke:#0d0086;stroke-width:0.565;stroke-linecap:butt;stroke-linejoin:miter;stroke-miterlimit:4;stroke-dasharray:none;stroke-opacity:1"
       d="M 34.395836,56.229117 161.39583,130.31249"
       id="path1139"
       inkscape:connector-curvature="0" />
    <path
       id="path1534"
       title="y=-log10(x+1)"
       d=""
       style="opacity:1;fill:none;fill-opacity:1;stroke:#b30000;stroke-width:0.26499999;stroke-linecap:square;stroke-miterlimit:4;stroke-dasharray:none;stroke-dashoffset:0;stroke-opacity:1"
       inkscape:connector-curvature="0" />
    <path
       id="path1556"
       title="y=-log10(x+1)"
       d=""
       style="opacity:1;fill:none;fill-opacity:1;stroke:#b30000;stroke-width:0.26499999;stroke-linecap:square;stroke-miterlimit:4;stroke-dasharray:none;stroke-dashoffset:0;stroke-opacity:1"
       inkscape:connector-curvature="0" />
    <path
       id="path2874"
       title="t -log(t+1)"
       d="m 34.395836,56.424255 c 0.178622,9.635274 0.357243,9.493133 0.535865,11.343819 0.178622,1.850687 0.357244,3.044024 0.535865,4.067219 0.178622,1.023194 0.357244,1.829688 0.535865,2.536739 0.178622,0.707052 0.357244,1.307993 0.535864,1.848149 0.178622,0.540157 0.357244,1.01767 0.535865,1.454675 0.178622,0.437004 0.357244,0.83275 0.535866,1.199683 0.178621,0.366932 0.357243,0.704669 0.535865,1.020894 0.178621,0.316227 0.357243,0.610716 0.535865,0.888549 0.178622,0.277834 0.357243,0.538858 0.535865,0.786612 0.178622,0.247755 0.357243,0.482126 0.535865,0.705676 0.178622,0.22355 0.357244,0.436197 0.535865,0.639852 0.178622,0.203656 0.357242,0.398255 0.535864,0.585268 0.178622,0.187011 0.357243,0.366383 0.535865,0.539267 0.178622,0.172885 0.357244,0.339235 0.535865,0.499976 0.178622,0.160738 0.357244,0.31583 0.535865,0.46602 0.178622,0.150191 0.357244,0.295448 0.535866,0.436387 0.178621,0.140941 0.357243,0.277536 0.535865,0.410299 0.178621,0.132764 0.357243,0.261671 0.535865,0.387155 0.178622,0.125482 0.357243,0.24752 0.535865,0.366479 0.17862,0.118961 0.357242,0.234823 0.535864,0.347905 0.178622,0.113081 0.357243,0.223365 0.535865,0.331122 0.178622,0.107756 0.357243,0.212971 0.535865,0.315881 0.178622,0.102911 0.357244,0.203504 0.535865,0.301985 0.178622,0.09848 0.357244,0.194841 0.535865,0.289259 0.178622,0.09442 0.357244,0.186885 0.535866,0.277561 0.178621,0.09068 0.357243,0.179555 0.535865,0.266775 0.178621,0.08722 0.357243,0.172777 0.535863,0.256796 0.178622,0.08401 0.357244,0.166491 0.535866,0.247535 0.178621,0.08104 0.357243,0.160647 0.535865,0.238918 0.178621,0.07827 0.357243,0.155201 0.535865,0.230884 0.178622,0.07569 0.357243,0.15011 0.535865,0.223369 0.178622,0.07325 0.357244,0.145344 0.535865,0.216332 0.178622,0.07099 0.357244,0.14087 0.535865,0.209722 0.178622,0.06885 0.357244,0.136663 0.535866,0.203503 0.178621,0.06684 0.357242,0.132702 0.535863,0.197646 0.178622,0.06495 0.357245,0.128962 0.535866,0.192113 0.178622,0.06316 0.357244,0.125429 0.535866,0.186884 0.178621,0.06146 0.357243,0.122082 0.535865,0.18193 0.178621,0.05985 0.357243,0.118912 0.535865,0.177235 0.178622,0.05831 0.357243,0.115899 0.535865,0.172773 0.178622,0.05688 0.357243,0.113037 0.535865,0.168531 0.178622,0.05549 0.357244,0.110313 0.535865,0.164492 0.178621,0.05418 0.357242,0.107718 0.535864,0.160645 0.178622,0.05293 0.357244,0.10524 0.535865,0.156971 0.178622,0.05173 0.357244,0.102874 0.535865,0.153461 0.178622,0.05059 0.357244,0.100613 0.535866,0.150106 0.178621,0.04949 0.357243,0.09845 0.535865,0.146894 0.178621,0.04845 0.357243,0.09638 0.535865,0.143817 0.178622,0.04744 0.357243,0.09439 0.535865,0.140865 0.178622,0.04648 0.357243,0.09248 0.535864,0.138033 0.178621,0.04555 0.357243,0.09065 0.535865,0.135313 0.178622,0.04466 0.357243,0.08889 0.535865,0.132694 0.178622,0.04379 0.357243,0.0872 0.535865,0.130185 0.178622,0.04299 0.357244,0.08556 0.535865,0.127757 0.178622,0.04219 0.357244,0.084 0.535865,0.125421 0.178622,0.04147 0.357244,0.08249 0.535866,0.123175 0.178621,0.04067 0.357243,0.08102 0.535865,0.120999 0.178621,0.04002 0.357242,0.07962 0.535864,0.118912 0.178621,0.03929 0.357243,0.07825 0.535865,0.116881 0.178621,0.03864 0.357243,0.07693 0.535865,0.114925 0.178622,0.03798 0.357243,0.07566 0.535865,0.113032 0.178622,0.03734 0.357243,0.07444 0.535865,0.111198 0.178622,0.03676 0.357244,0.07325 0.535865,0.109429 0.178622,0.03618 0.357244,0.07206 0.535865,0.107718 0.178622,0.0356 0.357244,0.07097 0.535864,0.106043 0.178622,0.03509 0.357244,0.06989 0.535865,0.104441 0.178622,0.03458 0.357244,0.0688 0.535866,0.102868 0.178621,0.034 0.357243,0.06778 0.535865,0.101353 0.178621,0.03357 0.357243,0.06685 0.535865,0.09987 0.178622,0.03306 0.357243,0.0659 0.535865,0.09844 0.178622,0.03255 0.357243,0.06496 0.535865,0.09705 0.178622,0.03211 0.357244,0.06402 0.535865,0.0957 0.178622,0.03168 0.357242,0.06315 0.535864,0.09439 0.178622,0.03124 0.357243,0.06228 0.535865,0.09311 0.178622,0.03082 0.357244,0.0614 0.535865,0.09186 0.178622,0.03045 0.357244,0.0606 0.535865,0.09065 0.178622,0.02999 0.357244,0.05979 0.535866,0.08942 0.178621,0.02962 0.357243,0.05907 0.535865,0.08833 0.178621,0.02926 0.357243,0.05825 0.535865,0.08715 0.178622,0.02881 0.357243,0.05752 0.535865,0.08606 0.17862,0.02854 0.357242,0.05689 0.535864,0.08506 0.178622,0.02817 0.357243,0.05616 0.535865,0.08397 0.178622,0.02781 0.357243,0.05543 0.535865,0.08297 0.178622,0.02744 0.357244,0.0548 0.535865,0.08197 0.178622,0.02717 0.357244,0.05416 0.535865,0.08106 0.178622,0.02681 0.357244,0.05352 0.535866,0.08006 0.178621,0.02654 0.357243,0.05289 0.535865,0.07915 0.178621,0.02626 0.357243,0.05234 0.535863,0.07824 0.178622,0.02599 0.357244,0.05171 0.535866,0.07733 0.178621,0.02563 0.357243,0.05107 0.535865,0.07652 0.178621,0.02535 0.357243,0.05062 0.535865,0.0757 0.178622,0.02508 0.357243,0.04998 0.535865,0.07479 0.178622,0.02481 0.357244,0.04953 0.535865,0.07406 0.178622,0.02463 0.357244,0.04889 0.535865,0.07325 0.178622,0.02426 0.357244,0.04844 0.535866,0.07252 0.178621,0.02399 0.357242,0.04789 0.535863,0.0717 0.178622,0.02381 0.357244,0.04744 0.535865,0.07097 0.178622,0.02354 0.357244,0.04698 0.535866,0.07025 0.178621,0.02326 0.357243,0.04644 0.535865,0.06952 0.178621,0.02308 0.357243,0.04607 0.535865,0.06879 0.178622,0.02281 0.357243,0.04553 0.535865,0.06816 0.178622,0.02263 0.357243,0.04507 0.535865,0.06752 0.178622,0.02236 0.357244,0.04462 0.535865,0.06688 0.178621,0.02217 0.357242,0.04426 0.535864,0.06616 0.178622,0.02199 0.357244,0.0438 0.535865,0.06552 0.178622,0.02172 0.357244,0.04335 0.535865,0.06498 0.178622,0.02154 0.357245,0.04298 0.535867,0.06434 0.178621,0.02135 0.357243,0.04253 0.535865,0.0637 0.178621,0.02117 0.357243,0.04217 0.535865,0.06316 0.178622,0.02099 0.357243,0.0418 0.535865,0.06261 0.178622,0.02072 0.357243,0.04135 0.535864,0.06198 0.178621,0.02063 0.357243,0.04108 0.535865,0.06143 0.178622,0.02036 0.357243,0.04071 0.535865,0.06089 0.178622,0.02027 0.357243,0.04035 0.535865,0.06043 0.178622,0.01999 0.357244,0.03999 0.535865,0.0598 0.178622,0.0199 0.357244,0.03962 0.535865,0.05934 0.178622,0.01963 0.357244,0.03926 0.535866,0.0588 0.178621,0.01954 0.357243,0.03889 0.535865,0.05825 0.178621,0.01936 0.357242,0.03862 0.535864,0.05789 0.178621,0.01918 0.357243,0.03826 0.535865,0.05734 0.178621,0.01908 0.357243,0.03798 0.535865,0.05689 0.178622,0.01881 0.357243,0.03771 0.535865,0.05643 0.178622,0.01872 0.357246,0.03735 0.535866,0.05589 0.17862,0.01854 0.35724,0.03708 0.53586,0.05543 0.17862,0.01845 0.35725,0.0368 0.53587,0.05507 0.17862,0.01827 0.35724,0.03644 0.53586,0.05462 0.17862,0.01808 0.35724,0.03617 0.53587,0.05416 0.17862,0.01799 0.35724,0.03589 0.53586,0.05371 0.17862,0.01781 0.35724,0.03562 0.53587,0.05334 0.17862,0.01772 0.35724,0.03535 0.53586,0.05289 0.17862,0.01754 0.35725,0.03508 0.53587,0.05253 0.17862,0.01736 0.35724,0.0348 0.53586,0.05216 0.17862,0.01736 0.35725,0.03462 0.53587,0.05171 0.17862,0.01718 0.35724,0.03426 0.53586,0.05134 0.17862,0.01699 0.35724,0.03408 0.53587,0.05098 0.17862,0.01699 0.35724,0.0338 0.53586,0.05061 0.17862,0.0168 0.35724,0.0335 0.53587,0.0502 0.17862,0.0166 0.35724,0.0333 0.53586,0.0499 0.17862,0.0165 0.35725,0.0331 0.53587,0.0494 0.17862,0.0165 0.35724,0.0328 0.53586,0.0492 0.17862,0.0163 0.35725,0.0325 0.53587,0.0488 0.17862,0.0163 0.35724,0.0323 0.53586,0.0484 0.17862,0.0161 0.35724,0.0321 0.53587,0.0481 0.17862,0.0159 0.35724,0.0319 0.53586,0.0478 0.17862,0.0159 0.35724,0.0317 0.53587,0.0474 0.17862,0.0157 0.35724,0.0314 0.53586,0.0472 0.17862,0.0156 0.35724,0.0313 0.53587,0.0468 0.17862,0.0156 0.35724,0.031 0.53586,0.0464 0.17862,0.0154 0.35725,0.0308 0.53587,0.0462 0.17862,0.0153 0.35724,0.0306 0.53586,0.0458 0.17862,0.0152 0.35724,0.0305 0.53587,0.0454 0.17862,0.0152 0.35724,0.0302 0.53586,0.0453 0.17862,0.015 0.35724,0.03 0.53587,0.045 0.17862,0.0149 0.35724,0.0299 0.53586,0.0446 0.17862,0.0149 0.35724,0.0296 0.53587,0.0443 0.17862,0.0147 0.35724,0.0295 0.53586,0.0441 0.17862,0.0146 0.35724,0.0293 0.53587,0.0438 0.17862,0.0145 0.35724,0.0291 0.53586,0.0435 0.17862,0.0145 0.35724,0.0289 0.53587,0.0433 0.17862,0.0144 0.35724,0.0287 0.53586,0.043 0.17862,0.0143 0.35724,0.0285 0.53587,0.0427 0.17862,0.0142 0.35724,0.0284 0.53586,0.0425 0.17862,0.0141 0.35724,0.0282 0.53587,0.0422 0.17862,0.014 0.35724,0.0281 0.53586,0.042 0.17862,0.0139 0.35724,0.0278 0.53587,0.0417 0.17862,0.0138 0.35724,0.0277 0.53586,0.0413 0.17862,0.0138 0.35724,0.0274 0.53587,0.0412 0.17862,0.0137 0.35724,0.0274 0.53586,0.0409 0.17862,0.0135 0.35724,0.0272 0.53587,0.0407 0.17861,0.0135 0.35724,0.027 0.53586,0.0404 0.17862,0.0134 0.35724,0.0268 0.53587,0.0403 0.17861,0.0134 0.35724,0.0267 0.53586,0.04 0.17862,0.0134 0.35724,0.0265 0.53587,0.0398 0.17861,0.0133 0.35724,0.0264 0.53586,0.0395 0.17862,0.0131 0.35724,0.0262 0.53587,0.0393 0.17861,0.0131 0.35724,0.026 0.53586,0.0391 0.17862,0.013 0.35724,0.026 0.53587,0.0389 0.17861,0.0129 0.35724,0.0258 0.53586,0.0386 0.17863,0.0128 0.35724,0.0256 0.53587,0.0384 0.17861,0.0128 0.35724,0.0255 0.53586,0.0382 0.17863,0.0127 0.35724,0.0254 0.53587,0.038 0.17861,0.0126 0.35724,0.0253 0.53586,0.0378 0.17863,0.0125 0.35724,0.0251 0.53587,0.0375 0.17861,0.0125 0.35724,0.0249 0.53586,0.0374 0.17863,0.0125 0.35724,0.0248 0.53587,0.0372 0.17861,0.0123 0.35724,0.0246 0.53586,0.0369 0.17863,0.0123 0.35724,0.0246 0.53587,0.0368 0.17861,0.0122 0.35724,0.0244 0.53586,0.0366 0.17863,0.0121 0.35724,0.0243 0.53587,0.0363 0.17861,0.0121 0.35724,0.0242 0.53586,0.0362 0.17863,0.012 0.35724,0.0241 0.53587,0.036 0.17862,0.012 0.35724,0.0238 0.53586,0.0358 0.17863,0.012 0.35724,0.0238 0.53587,0.0357 0.17862,0.0118 0.35724,0.0236 0.53586,0.0354 0.17863,0.0117 0.35724,0.0235 0.53587,0.0354 0.17862,0.0116 0.35724,0.0234 0.53586,0.035 0.17863,0.0116 0.35724,0.0233 0.53587,0.0349 0.17862,0.0116 0.35724,0.0232 0.53586,0.0346 0.17863,0.0115 0.35724,0.0232 0.53586,0.0345 0.17863,0.0115 0.35724,0.0229 0.53587,0.0344 0.17861,0.0114 0.35724,0.0228 0.53586,0.0342 0.17863,0.0113 0.35724,0.0228 0.53587,0.034 0.17861,0.0114 0.35724,0.0225 0.53586,0.0338 0.17863,0.0113 0.35724,0.0224 0.53587,0.0337 0.17862,0.0113 0.35724,0.0224 0.53586,0.0335 0.17863,0.0112 0.35724,0.0224 0.53587,0.0334 0.17862,0.0111 0.35724,0.0221 0.53586,0.0332 0.17863,0.0111 0.35724,0.022 0.53587,0.0331 0.17862,0.011 0.35724,0.022 0.53586,0.0328 0.17863,0.0109 0.35724,0.0219 0.53587,0.0328 0.17862,0.0109 0.35724,0.0217 0.53586,0.0326 0.17863,0.0108 0.35724,0.0216 0.53587,0.0324 0.17862,0.0108 0.35724,0.0215 0.53586,0.0323 0.17863,0.0107 0.35724,0.0215 0.53587,0.0321 0.17862,0.0106 0.35725,0.0214 0.53586,0.032 0.17863,0.0106 0.35724,0.0213 0.53587,0.0318 0.17862,0.0105 0.35725,0.0212 0.53586,0.0317 0.17863,0.0106 0.35724,0.021 0.53587,0.0315 0.17862,0.0105 0.35725,0.021 0.53586,0.0314 0.17863,0.0105 0.35724,0.0209 0.53587,0.0313 0.17862,0.0104 0.35725,0.0207 0.53586,0.0312 0.17863,0.0104 0.35724,0.0206 0.53587,0.031 0.17862,0.0103 0.35725,0.0206 0.53586,0.0308 0.17863,0.0103 0.35724,0.0205 0.53587,0.0306 0.17862,0.0103 0.35725,0.0204 0.53586,0.0305 0.17863,0.0103 0.35725,0.0203 0.53587,0.0304 0.17862,0.0102 0.35725,0.0203 0.53586,0.0303 0.17863,0.01 0.35725,0.0202 0.53587,0.0301 0.17862,0.01 0.35725,0.0201 0.53586,0.03 0.17863,0.01 0.35725,0.0199 0.53587,0.0299 0.17862,0.01 0.35725,0.0199 0.53586,0.0297 0.17863,0.01 0.35725,0.0198 0.53587,0.0296 0.17862,0.01 0.35725,0.0197 0.53586,0.0295 0.17863,0.01 0.35725,0.0196 0.53587,0.0294 0.17862,0.01 0.35725,0.0195 0.53586,0.0293 0.17863,0.01 0.35725,0.0194 0.53588,0.0292 0.17861,0.01 0.35724,0.0194 0.53585,0.029"
       style="opacity:1;fill:none;fill-opacity:1;stroke:#b30000;stroke-width:0.58899999;stroke-linecap:square;stroke-miterlimit:4;stroke-dasharray:none;stroke-dashoffset:0;stroke-opacity:1"
       inkscape:connector-curvature="0" />
    <g
       id="g3060"
       ns1:jacobian_sqrt="0.705556"
       ns1:alignment="middle center"
       ns1:scale="1.9999999433"
       ns1:preamble="/home/leo/T\xc3\xa9l\xc3\xa9chargements/ste/preamble.sty"
       ns1:text="$$\n\\log \\Big(f(x(\\tau))-f(x^*) \\Big)\n$$"
       ns1:pdfconverter="pdf2svg"
       ns1:texconverter="pdflatex"
       ns1:version="0.10.1"
       transform="matrix(0.705556,0,0,0.705556,-184.66713,-2.0903635)">
      <g
         id="g3467"
         ns1:jacobian_sqrt="0.705556"
         ns1:alignment="middle center"
         ns1:scale="1.9999999433"
         ns1:preamble="/home/leo/T\xc3\xa9l\xc3\xa9chargements/ste/preamble.sty"
         ns1:text="$$\n\\log\\big({\\rm error}\\big)\n$$"
         ns1:pdfconverter="pdf2svg"
         ns1:texconverter="pdflatex"
         ns1:version="0.10.1"
         transform="matrix(0,-0.93354781,0.99813106,0,153.54463,413.32459)">
        <g
           id="surface1">
          <g
             id="g3444"
             style="fill:#000000;fill-opacity:1">
            <path
               id="path3438"
               transform="translate(283.241,146.72)"
               d="m 2.546875,0 v -0.3125 c -0.671875,0 -0.78125,0 -0.78125,-0.4375 V -6.921875 L 0.328125,-6.8125 V -6.5 c 0.703125,0 0.78125,0.0625 0.78125,0.5625 V -0.75 c 0,0.4375 -0.109375,0.4375 -0.78125,0.4375 V 0 L 1.4375,-0.03125 Z m 0,0"
               style="stroke:none;stroke-width:0"
               inkscape:connector-curvature="0" />
            <path
               id="path3440"
               transform="translate(286.00861,146.72)"
               d="M 4.6875,-2.140625 C 4.6875,-3.40625 3.703125,-4.46875 2.5,-4.46875 c -1.25,0 -2.21875,1.09375 -2.21875,2.328125 0,1.296875 1.03125,2.25 2.203125,2.25 1.203125,0 2.203125,-0.984375 2.203125,-2.25 z M 3.875,-2.21875 c 0,0.359375 0,0.90625 -0.21875,1.34375 -0.234375,0.453125 -0.671875,0.734375 -1.15625,0.734375 -0.4375,0 -0.875,-0.203125 -1.140625,-0.671875 -0.25,-0.4375 -0.25,-1.046875 -0.25,-1.40625 0,-0.390625 0,-0.921875 0.234375,-1.359375 C 1.609375,-4.03125 2.078125,-4.25 2.484375,-4.25 c 0.4375,0 0.859375,0.21875 1.125,0.65625 0.265625,0.421875 0.265625,1 0.265625,1.375 z m 0,0"
               style="stroke:none;stroke-width:0"
               inkscape:connector-curvature="0" />
            <path
               id="path3442"
               transform="translate(290.98991,146.72)"
               d="m 4.828125,-4.03125 c 0,-0.171875 -0.109375,-0.484375 -0.5,-0.484375 -0.203125,0 -0.640625,0.0625 -1.0625,0.46875 C 2.84375,-4.375 2.4375,-4.40625 2.21875,-4.40625 c -0.9375,0 -1.625,0.6875 -1.625,1.453125 0,0.4375 0.21875,0.8125 0.46875,1.03125 -0.125,0.140625 -0.3125,0.46875 -0.3125,0.828125 0,0.3125 0.140625,0.6875 0.453125,0.890625 -0.609375,0.15625 -0.921875,0.59375 -0.921875,0.984375 0,0.71875 0.984375,1.265625 2.203125,1.265625 1.171875,0 2.203125,-0.5 2.203125,-1.28125 0,-0.34375 -0.125,-0.859375 -0.640625,-1.140625 -0.53125,-0.265625 -1.109375,-0.265625 -1.71875,-0.265625 -0.25,0 -0.671875,0 -0.75,-0.015625 C 1.265625,-0.703125 1.0625,-1 1.0625,-1.328125 c 0,-0.03125 0,-0.265625 0.15625,-0.46875 0.390625,0.28125 0.8125,0.3125 1,0.3125 0.921875,0 1.609375,-0.6875 1.609375,-1.453125 0,-0.375 -0.15625,-0.734375 -0.40625,-0.96875 C 3.78125,-4.25 4.140625,-4.296875 4.3125,-4.296875 c 0,0 0.078125,0 0.109375,0.015625 C 4.3125,-4.25 4.25,-4.140625 4.25,-4.015625 c 0,0.171875 0.140625,0.28125 0.296875,0.28125 0.09375,0 0.28125,-0.0625 0.28125,-0.296875 z m -1.75,1.078125 c 0,0.265625 0,0.59375 -0.15625,0.84375 C 2.84375,-2 2.609375,-1.71875 2.21875,-1.71875 c -0.875,0 -0.875,-1 -0.875,-1.21875 0,-0.265625 0.015625,-0.59375 0.15625,-0.84375 0.078125,-0.109375 0.3125,-0.390625 0.71875,-0.390625 0.859375,0 0.859375,0.984375 0.859375,1.21875 z m 1.09375,3.734375 c 0,0.546875 -0.703125,1.046875 -1.671875,1.046875 -1.015625,0 -1.703125,-0.515625 -1.703125,-1.046875 0,-0.453125 0.375,-0.828125 0.8125,-0.84375 h 0.59375 c 0.859375,0 1.96875,0 1.96875,0.84375 z m 0,0"
               style="stroke:none;stroke-width:0"
               inkscape:connector-curvature="0" />
          </g>
          <g
             id="g3448"
             style="fill:#000000;fill-opacity:1">
            <path
               id="path3446"
               transform="translate(297.758,138.65)"
               d="m 4.109375,11.453125 c 0,-0.03125 -0.015625,-0.0625 -0.03125,-0.09375 C 3.625,10.875 2.9375,10.0625 2.515625,8.4375 2.296875,7.53125 2.203125,6.515625 2.203125,5.578125 c 0,-2.625 0.625,-4.453125 1.828125,-5.75 0.078125,-0.09375 0.078125,-0.125 0.078125,-0.125 C 4.109375,-0.40625 4.03125,-0.40625 4,-0.40625 c -0.15625,0 -0.6875,0.609375 -0.8125,0.75 -1.03125,1.21875 -1.671875,3 -1.671875,5.234375 0,1.40625 0.25,3.40625 1.5625,5.09375 0.09375,0.125 0.734375,0.875 0.921875,0.875 0.03125,0 0.109375,0 0.109375,-0.09375 z m 0,0"
               style="stroke:none;stroke-width:0"
               inkscape:connector-curvature="0" />
          </g>
          <g
             id="g3460"
             style="fill:#000000;fill-opacity:1">
            <path
               id="path3450"
               transform="translate(302.325,146.72)"
               d="m 4.140625,-1.1875 c 0,-0.09375 -0.078125,-0.125 -0.140625,-0.125 -0.078125,0 -0.109375,0.0625 -0.125,0.140625 -0.34375,1.03125 -1.25,1.03125 -1.34375,1.03125 -0.5,0 -0.890625,-0.296875 -1.125,-0.671875 -0.296875,-0.46875 -0.296875,-1.125 -0.296875,-1.484375 h 2.78125 c 0.21875,0 0.25,0 0.25,-0.21875 0,-0.984375 -0.546875,-1.953125 -1.78125,-1.953125 -1.15625,0 -2.078125,1.03125 -2.078125,2.28125 0,1.328125 1.046875,2.296875 2.1875,2.296875 C 3.6875,0.109375 4.140625,-1 4.140625,-1.1875 Z m -0.65625,-1.328125 h -2.375 C 1.171875,-4 2.015625,-4.25 2.359375,-4.25 c 1.015625,0 1.125,1.34375 1.125,1.734375 z m 0,0"
               style="stroke:none;stroke-width:0"
               inkscape:connector-curvature="0" />
            <path
               id="path3452"
               transform="translate(306.75338,146.72)"
               d="m 3.625,-3.796875 c 0,-0.3125 -0.3125,-0.609375 -0.734375,-0.609375 -0.734375,0 -1.09375,0.671875 -1.21875,1.09375 V -4.40625 L 0.28125,-4.296875 v 0.3125 c 0.703125,0 0.78125,0.0625 0.78125,0.5625 V -0.75 c 0,0.4375 -0.109375,0.4375 -0.78125,0.4375 V 0 l 1.140625,-0.03125 c 0.390625,0 0.859375,0 1.265625,0.03125 V -0.3125 H 2.46875 c -0.734375,0 -0.75,-0.109375 -0.75,-0.46875 V -2.3125 c 0,-0.984375 0.421875,-1.875 1.171875,-1.875 0.0625,0 0.09375,0 0.109375,0.015625 -0.03125,0 -0.234375,0.125 -0.234375,0.390625 0,0.265625 0.21875,0.421875 0.4375,0.421875 0.171875,0 0.421875,-0.125 0.421875,-0.4375 z m 0,0"
               style="stroke:none;stroke-width:0"
               inkscape:connector-curvature="0" />
            <path
               id="path3454"
               transform="translate(310.65573,146.72)"
               d="m 3.625,-3.796875 c 0,-0.3125 -0.3125,-0.609375 -0.734375,-0.609375 -0.734375,0 -1.09375,0.671875 -1.21875,1.09375 V -4.40625 L 0.28125,-4.296875 v 0.3125 c 0.703125,0 0.78125,0.0625 0.78125,0.5625 V -0.75 c 0,0.4375 -0.109375,0.4375 -0.78125,0.4375 V 0 l 1.140625,-0.03125 c 0.390625,0 0.859375,0 1.265625,0.03125 V -0.3125 H 2.46875 c -0.734375,0 -0.75,-0.109375 -0.75,-0.46875 V -2.3125 c 0,-0.984375 0.421875,-1.875 1.171875,-1.875 0.0625,0 0.09375,0 0.109375,0.015625 -0.03125,0 -0.234375,0.125 -0.234375,0.390625 0,0.265625 0.21875,0.421875 0.4375,0.421875 0.171875,0 0.421875,-0.125 0.421875,-0.4375 z m 0,0"
               style="stroke:none;stroke-width:0"
               inkscape:connector-curvature="0" />
            <path
               id="path3456"
               transform="translate(314.55808,146.72)"
               d="M 4.6875,-2.140625 C 4.6875,-3.40625 3.703125,-4.46875 2.5,-4.46875 c -1.25,0 -2.21875,1.09375 -2.21875,2.328125 0,1.296875 1.03125,2.25 2.203125,2.25 1.203125,0 2.203125,-0.984375 2.203125,-2.25 z M 3.875,-2.21875 c 0,0.359375 0,0.90625 -0.21875,1.34375 -0.234375,0.453125 -0.671875,0.734375 -1.15625,0.734375 -0.4375,0 -0.875,-0.203125 -1.140625,-0.671875 -0.25,-0.4375 -0.25,-1.046875 -0.25,-1.40625 0,-0.390625 0,-0.921875 0.234375,-1.359375 C 1.609375,-4.03125 2.078125,-4.25 2.484375,-4.25 c 0.4375,0 0.859375,0.21875 1.125,0.65625 0.265625,0.421875 0.265625,1 0.265625,1.375 z m 0,0"
               style="stroke:none;stroke-width:0"
               inkscape:connector-curvature="0" />
            <path
               id="path3458"
               transform="translate(319.53938,146.72)"
               d="m 3.625,-3.796875 c 0,-0.3125 -0.3125,-0.609375 -0.734375,-0.609375 -0.734375,0 -1.09375,0.671875 -1.21875,1.09375 V -4.40625 L 0.28125,-4.296875 v 0.3125 c 0.703125,0 0.78125,0.0625 0.78125,0.5625 V -0.75 c 0,0.4375 -0.109375,0.4375 -0.78125,0.4375 V 0 l 1.140625,-0.03125 c 0.390625,0 0.859375,0 1.265625,0.03125 V -0.3125 H 2.46875 c -0.734375,0 -0.75,-0.109375 -0.75,-0.46875 V -2.3125 c 0,-0.984375 0.421875,-1.875 1.171875,-1.875 0.0625,0 0.09375,0 0.109375,0.015625 -0.03125,0 -0.234375,0.125 -0.234375,0.390625 0,0.265625 0.21875,0.421875 0.4375,0.421875 0.171875,0 0.421875,-0.125 0.421875,-0.4375 z m 0,0"
               style="stroke:none;stroke-width:0"
               inkscape:connector-curvature="0" />
          </g>
          <g
             id="g3464"
             style="fill:#000000;fill-opacity:1">
            <path
               id="path3462"
               transform="translate(323.441,138.65)"
               d="m 3.046875,5.578125 c 0,-1.40625 -0.25,-3.421875 -1.5625,-5.09375 -0.09375,-0.125 -0.75,-0.890625 -0.921875,-0.890625 -0.046875,0 -0.125,0.03125 -0.125,0.109375 0,0.03125 0.015625,0.0625 0.0625,0.09375 C 0.984375,0.3125 1.625,1.125 2.03125,2.71875 2.265625,3.625 2.359375,4.640625 2.359375,5.578125 c 0,1 -0.09375,2.015625 -0.359375,3 -0.375,1.390625 -0.96875,2.1875 -1.46875,2.75 -0.09375,0.09375 -0.09375,0.125 -0.09375,0.125 0,0.07813 0.078125,0.09375 0.125,0.09375 0.140625,0 0.6875,-0.59375 0.8125,-0.734375 1.015625,-1.21875 1.671875,-3 1.671875,-5.234375 z m 0,0"
               style="stroke:none;stroke-width:0"
               inkscape:connector-curvature="0" />
          </g>
        </g>
      </g>
      <g
         id="g3539"
         ns1:jacobian_sqrt="0.705556"
         ns1:alignment="middle center"
         ns1:scale="1.9999999433"
         ns1:preamble="/home/leo/T\xc3\xa9l\xc3\xa9chargements/ste/preamble.sty"
         ns1:text="$$\n{\\rm SGD}\n$$"
         ns1:pdfconverter="pdf2svg"
         ns1:texconverter="pdflatex"
         ns1:version="0.10.1"
         transform="matrix(0.705556,0,0,0.705556,143.79269,42.931553)">
        <g
           id="g3537">
          <g
             id="g3535"
             style="fill:#000000;fill-opacity:1">
            <path
               id="path3529"
               transform="translate(295.142,146.72)"
               d="m 4.96875,-1.859375 c 0,-0.984375 -0.65625,-1.8125 -1.484375,-2.015625 l -1.28125,-0.296875 c -0.625,-0.15625 -1,-0.6875 -1,-1.265625 0,-0.703125 0.53125,-1.3125 1.3125,-1.3125 1.65625,0 1.875,1.640625 1.9375,2.078125 0.015625,0.0625 0.015625,0.125 0.125,0.125 0.125,0 0.125,-0.046875 0.125,-0.234375 v -2 c 0,-0.171875 0,-0.25 -0.109375,-0.25 -0.0625,0 -0.078125,0.015625 -0.140625,0.140625 l -0.359375,0.5625 C 3.796875,-6.625 3.390625,-7.03125 2.5,-7.03125 c -1.109375,0 -1.9375,0.875 -1.9375,1.9375 0,0.828125 0.53125,1.5625 1.296875,1.828125 0.109375,0.03125 0.625,0.15625 1.328125,0.328125 0.265625,0.0625 0.5625,0.140625 0.84375,0.5 0.203125,0.265625 0.3125,0.59375 0.3125,0.921875 0,0.703125 -0.5,1.421875 -1.34375,1.421875 -0.28125,0 -1.046875,-0.046875 -1.578125,-0.53125 C 0.84375,-1.171875 0.8125,-1.796875 0.8125,-2.15625 0.796875,-2.265625 0.71875,-2.265625 0.6875,-2.265625 c -0.125,0 -0.125,0.078125 -0.125,0.25 v 2 c 0,0.171875 0,0.234375 0.109375,0.234375 0.0625,0 0.078125,-0.015625 0.140625,-0.125 0,0 0.03125,-0.046875 0.359375,-0.578125 0.3125,0.34375 0.953125,0.703125 1.84375,0.703125 1.15625,0 1.953125,-0.96875 1.953125,-2.078125 z m 0,0"
               style="stroke:none;stroke-width:0"
               inkscape:connector-curvature="0" />
            <path
               id="path3531"
               transform="translate(300.67722,146.72)"
               d="m 7.328125,-2.40625 v -0.3125 l -1.21875,0.03125 c -0.390625,0 -1.25,0 -1.609375,-0.03125 v 0.3125 H 4.828125 C 5.71875,-2.40625 5.75,-2.296875 5.75,-1.9375 v 0.640625 c 0,1.125 -1.265625,1.203125 -1.546875,1.203125 -0.640625,0 -2.625,-0.34375 -2.625,-3.3125 0,-2.984375 1.96875,-3.3125 2.5625,-3.3125 1.078125,0 1.984375,0.890625 2.171875,2.359375 0.03125,0.140625 0.03125,0.171875 0.171875,0.171875 0.15625,0 0.15625,-0.03125 0.15625,-0.234375 V -6.78125 c 0,-0.171875 0,-0.25 -0.109375,-0.25 -0.046875,0 -0.078125,0 -0.15625,0.125 l -0.5,0.734375 C 5.546875,-6.484375 5.015625,-7.03125 4.03125,-7.03125 c -1.859375,0 -3.46875,1.578125 -3.46875,3.625 0,2.046875 1.59375,3.625 3.484375,3.625 0.734375,0 1.53125,-0.265625 1.859375,-0.84375 0.140625,0.21875 0.53125,0.609375 0.640625,0.609375 0.09375,0 0.09375,-0.078125 0.09375,-0.21875 V -1.96875 c 0,-0.390625 0.03125,-0.4375 0.6875,-0.4375 z m 0,0"
               style="stroke:none;stroke-width:0"
               inkscape:connector-curvature="0" />
            <path
               id="path3533"
               transform="translate(308.49487,146.72)"
               d="M 7.046875,-3.34375 C 7.046875,-5.25 5.703125,-6.8125 4,-6.8125 H 0.34375 V -6.5 h 0.25 c 0.765625,0 0.78125,0.109375 0.78125,0.46875 v 5.25 c 0,0.359375 -0.015625,0.46875 -0.78125,0.46875 h -0.25 V 0 H 4 c 1.671875,0 3.046875,-1.46875 3.046875,-3.34375 z m -1,0 c 0,1.09375 -0.1875,1.703125 -0.546875,2.1875 C 5.296875,-0.890625 4.734375,-0.3125 3.734375,-0.3125 H 2.71875 C 2.25,-0.3125 2.234375,-0.375 2.234375,-0.703125 V -6.09375 C 2.234375,-6.4375 2.25,-6.5 2.71875,-6.5 h 1 c 0.625,0 1.3125,0.21875 1.8125,0.921875 0.4375,0.59375 0.515625,1.453125 0.515625,2.234375 z m 0,0"
               style="stroke:none;stroke-width:0"
               inkscape:connector-curvature="0" />
          </g>
        </g>
      </g>
      <g
         id="g3605"
         ns1:jacobian_sqrt="0.705556"
         ns1:alignment="middle center"
         ns1:scale="1.9999999433"
         ns1:preamble="/home/leo/T\xc3\xa9l\xc3\xa9chargements/ste/preamble.sty"
         ns1:text="$$\n{\\rm GD}\n$$"
         ns1:pdfconverter="pdf2svg"
         ns1:texconverter="pdflatex"
         ns1:version="0.10.1"
         transform="matrix(0.705556,0,0,0.705556,176.65718,19.349453)">
        <g
           id="g3603">
          <g
             id="g3601"
             style="fill:#000000;fill-opacity:1">
            <path
               id="path3597"
               transform="translate(297.91,146.72)"
               d="m 7.328125,-2.40625 v -0.3125 l -1.21875,0.03125 c -0.390625,0 -1.25,0 -1.609375,-0.03125 v 0.3125 H 4.828125 C 5.71875,-2.40625 5.75,-2.296875 5.75,-1.9375 v 0.640625 c 0,1.125 -1.265625,1.203125 -1.546875,1.203125 -0.640625,0 -2.625,-0.34375 -2.625,-3.3125 0,-2.984375 1.96875,-3.3125 2.5625,-3.3125 1.078125,0 1.984375,0.890625 2.171875,2.359375 0.03125,0.140625 0.03125,0.171875 0.171875,0.171875 0.15625,0 0.15625,-0.03125 0.15625,-0.234375 V -6.78125 c 0,-0.171875 0,-0.25 -0.109375,-0.25 -0.046875,0 -0.078125,0 -0.15625,0.125 l -0.5,0.734375 C 5.546875,-6.484375 5.015625,-7.03125 4.03125,-7.03125 c -1.859375,0 -3.46875,1.578125 -3.46875,3.625 0,2.046875 1.59375,3.625 3.484375,3.625 0.734375,0 1.53125,-0.265625 1.859375,-0.84375 0.140625,0.21875 0.53125,0.609375 0.640625,0.609375 0.09375,0 0.09375,-0.078125 0.09375,-0.21875 V -1.96875 c 0,-0.390625 0.03125,-0.4375 0.6875,-0.4375 z m 0,0"
               style="stroke:none;stroke-width:0"
               inkscape:connector-curvature="0" />
            <path
               id="path3599"
               transform="translate(305.72765,146.72)"
               d="M 7.046875,-3.34375 C 7.046875,-5.25 5.703125,-6.8125 4,-6.8125 H 0.34375 V -6.5 h 0.25 c 0.765625,0 0.78125,0.109375 0.78125,0.46875 v 5.25 c 0,0.359375 -0.015625,0.46875 -0.78125,0.46875 h -0.25 V 0 H 4 c 1.671875,0 3.046875,-1.46875 3.046875,-3.34375 z m -1,0 c 0,1.09375 -0.1875,1.703125 -0.546875,2.1875 C 5.296875,-0.890625 4.734375,-0.3125 3.734375,-0.3125 H 2.71875 C 2.25,-0.3125 2.234375,-0.375 2.234375,-0.703125 V -6.09375 C 2.234375,-6.4375 2.25,-6.5 2.71875,-6.5 h 1 c 0.625,0 1.3125,0.21875 1.8125,0.921875 0.4375,0.59375 0.515625,1.453125 0.515625,2.234375 z m 0,0"
               style="stroke:none;stroke-width:0"
               inkscape:connector-curvature="0" />
          </g>
        </g>
      </g>
    </g>
    <g
       id="g3164"
       ns1:jacobian_sqrt="0.705556"
       ns1:alignment="middle center"
       ns1:scale="1.9999999433"
       ns1:preamble="/home/leo/T\xc3\xa9l\xc3\xa9chargements/ste/preamble.sty"
       ns1:text="$$\n{\\rm Time}\n$$"
       ns1:pdfconverter="pdf2svg"
       ns1:texconverter="pdflatex"
       ns1:version="0.10.1"
       transform="matrix(0.705556,0,0,0.705556,-119.96,39.790973)">
      <g
         id="g3162">
        <g
           id="g3160"
           style="fill:#000000;fill-opacity:1">
          <path
             id="path3152"
             transform="translate(294.278,146.72)"
             d="m 6.828125,-4.5 -0.1875,-2.25 h -6.09375 l -0.1875,2.25 h 0.25 C 0.75,-6.109375 0.890625,-6.4375 2.40625,-6.4375 c 0.171875,0 0.4375,0 0.53125,0.015625 0.21875,0.046875 0.21875,0.15625 0.21875,0.375 v 5.265625 c 0,0.328125 0,0.46875 -1.046875,0.46875 H 1.703125 V 0 C 2.109375,-0.03125 3.125,-0.03125 3.59375,-0.03125 c 0.453125,0 1.484375,0 1.890625,0.03125 v -0.3125 h -0.40625 c -1.046875,0 -1.046875,-0.140625 -1.046875,-0.46875 v -5.265625 c 0,-0.1875 0,-0.328125 0.1875,-0.375 0.109375,-0.015625 0.375,-0.015625 0.5625,-0.015625 1.515625,0 1.65625,0.328125 1.796875,1.9375 z m 0,0"
             style="stroke:none;stroke-width:0"
             inkscape:connector-curvature="0" />
          <path
             id="path3154"
             transform="translate(301.47299,146.72)"
             d="m 2.46875,0 v -0.3125 c -0.671875,0 -0.703125,-0.046875 -0.703125,-0.4375 V -4.40625 L 0.375,-4.296875 v 0.3125 c 0.640625,0 0.734375,0.0625 0.734375,0.546875 V -0.75 c 0,0.4375 -0.109375,0.4375 -0.78125,0.4375 V 0 l 1.09375,-0.03125 C 1.78125,-0.03125 2.125,-0.015625 2.46875,0 Z m -0.5625,-6.015625 c 0,-0.28125 -0.21875,-0.53125 -0.515625,-0.53125 -0.34375,0 -0.546875,0.28125 -0.546875,0.53125 C 0.84375,-5.75 1.078125,-5.5 1.375,-5.5 c 0.34375,0 0.53125,-0.265625 0.53125,-0.515625 z m 0,0"
             style="stroke:none;stroke-width:0"
             inkscape:connector-curvature="0" />
          <path
             id="path3156"
             transform="translate(304.2406,146.72)"
             d="m 8.109375,0 v -0.3125 c -0.515625,0 -0.765625,0 -0.78125,-0.296875 v -1.90625 c 0,-0.859375 0,-1.15625 -0.3125,-1.515625 -0.140625,-0.171875 -0.46875,-0.375 -1.046875,-0.375 -0.828125,0 -1.28125,0.59375 -1.4375,0.984375 C 4.390625,-4.296875 3.65625,-4.40625 3.203125,-4.40625 2.46875,-4.40625 2,-3.984375 1.71875,-3.359375 V -4.40625 L 0.3125,-4.296875 v 0.3125 c 0.703125,0 0.78125,0.0625 0.78125,0.5625 V -0.75 c 0,0.4375 -0.109375,0.4375 -0.78125,0.4375 V 0 L 1.453125,-0.03125 2.5625,0 v -0.3125 c -0.671875,0 -0.78125,0 -0.78125,-0.4375 V -2.59375 C 1.78125,-3.625 2.5,-4.1875 3.125,-4.1875 c 0.640625,0 0.75,0.53125 0.75,1.109375 V -0.75 c 0,0.4375 -0.109375,0.4375 -0.78125,0.4375 V 0 L 4.21875,-0.03125 5.328125,0 v -0.3125 c -0.65625,0 -0.765625,0 -0.765625,-0.4375 v -1.84375 c 0,-1.03125 0.703125,-1.59375 1.34375,-1.59375 0.625,0 0.734375,0.53125 0.734375,1.109375 V -0.75 c 0,0.4375 -0.109375,0.4375 -0.78125,0.4375 V 0 l 1.125,-0.03125 z m 0,0"
             style="stroke:none;stroke-width:0"
             inkscape:connector-curvature="0" />
          <path
             id="path3158"
             transform="translate(312.54243,146.72)"
             d="m 4.140625,-1.1875 c 0,-0.09375 -0.078125,-0.125 -0.140625,-0.125 -0.078125,0 -0.109375,0.0625 -0.125,0.140625 -0.34375,1.03125 -1.25,1.03125 -1.34375,1.03125 -0.5,0 -0.890625,-0.296875 -1.125,-0.671875 -0.296875,-0.46875 -0.296875,-1.125 -0.296875,-1.484375 h 2.78125 c 0.21875,0 0.25,0 0.25,-0.21875 0,-0.984375 -0.546875,-1.953125 -1.78125,-1.953125 -1.15625,0 -2.078125,1.03125 -2.078125,2.28125 0,1.328125 1.046875,2.296875 2.1875,2.296875 C 3.6875,0.109375 4.140625,-1 4.140625,-1.1875 Z m -0.65625,-1.328125 h -2.375 C 1.171875,-4 2.015625,-4.25 2.359375,-4.25 c 1.015625,0 1.125,1.34375 1.125,1.734375 z m 0,0"
             style="stroke:none;stroke-width:0"
             inkscape:connector-curvature="0" />
        </g>
      </g>
    </g>
  </g>
</svg>
